<svg xmlns="http://www.w3.org/2000/svg" viewBox="0 0 470 470"><path d="M440 135.755V7.5a7.5 7.5 0 0 0-7.5-7.5h-60c-4.142 0-7.5 3.357-7.5 7.5s3.358 7.5 7.5 7.5H425v120h-15V37.5c0-4.143-3.358-7.5-7.5-7.5s-7.5 3.357-7.5 7.5v105a7.5 7.5 0 0 0 7.5 7.5h29.923c.026 0 .051.004.077.004l.052-.002C444.935 150.029 455 160.111 455 172.5v50c0 12.406-10.093 22.5-22.5 22.5h-30a7.5 7.5 0 0 0-7.5 7.5V275h-15V37.5c0-4.143-3.358-7.5-7.5-7.5s-7.5 3.357-7.5 7.5v245a7.5 7.5 0 0 0 7.5 7.5h29.981c12.433.007 22.519 10.098 22.519 22.5v50c0 12.402-10.086 22.493-22.487 22.5H372.5a7.5 7.5 0 0 0-7.5 7.5v40c0 4.143 3.358 7.5 7.5 7.5s7.5-3.357 7.5-7.5V400h15v32.5c0 4.143 3.358 7.5 7.5 7.5s7.5-3.357 7.5-7.5v-33.255a37.342 37.342 0 0 0 15-6.766V455h-75V7.5a7.5 7.5 0 0 0-7.5-7.5h-295A7.5 7.5 0 0 0 40 7.5v25H22.5C10.093 32.5 0 42.594 0 55s10.093 22.5 22.5 22.5H40v75H22.5C10.093 152.5 0 162.594 0 175s10.093 22.5 22.5 22.5H40v75H22.5C10.093 272.5 0 282.594 0 295s10.093 22.5 22.5 22.5H40v75H22.5C10.093 392.5 0 402.594 0 415s10.093 22.5 22.5 22.5H40v25a7.5 7.5 0 0 0 7.5 7.5h385a7.5 7.5 0 0 0 7.5-7.5V259.245c17.096-3.484 30-18.635 30-36.745v-50c0-18.11-12.904-33.261-30-36.745zM15 55c0-4.136 3.364-7.5 7.5-7.5h50c4.136 0 7.5 3.364 7.5 7.5s-3.364 7.5-7.5 7.5h-50c-4.136 0-7.5-3.364-7.5-7.5zm0 120c0-4.136 3.364-7.5 7.5-7.5h50c4.136 0 7.5 3.364 7.5 7.5s-3.364 7.5-7.5 7.5h-50c-4.136 0-7.5-3.364-7.5-7.5zm0 120c0-4.136 3.364-7.5 7.5-7.5h50c4.136 0 7.5 3.364 7.5 7.5s-3.364 7.5-7.5 7.5h-50c-4.136 0-7.5-3.364-7.5-7.5zm0 120c0-4.136 3.364-7.5 7.5-7.5h50c4.136 0 7.5 3.364 7.5 7.5s-3.364 7.5-7.5 7.5h-50c-4.136 0-7.5-3.364-7.5-7.5zm40 22.5h17.5c12.407 0 22.5-10.094 22.5-22.5s-10.093-22.5-22.5-22.5H55v-75h17.5c12.407 0 22.5-10.094 22.5-22.5s-10.093-22.5-22.5-22.5H55v-75h17.5c12.407 0 22.5-10.094 22.5-22.5s-10.093-22.5-22.5-22.5H55v-75h17.5C84.907 77.5 95 67.406 95 55S84.907 32.5 72.5 32.5H55V15h280v440H55v-17.5zm355-161.745V260h15v22.521a37.342 37.342 0 0 0-15-6.766z"/></svg>