<svg xmlns="http://www.w3.org/2000/svg" viewBox="0 0 512.003 512.003"><path d="M234.232 402.342a43.812 43.812 0 0 0-1.546-1.645l-61.541-63.036c-4.276-4.395-10.015-6.815-16.159-6.815-6.238 0-12.248 2.607-16.482 7.144-7.968 8.513-8.076 21.949-.243 30.59l37.068 40.86a4.735 4.735 0 0 1 1.243 3.224 4.794 4.794 0 0 1-1.834 3.784c-1.959 1.538-4.82 1.302-6.508-.533l-42.879-46.649a16.528 16.528 0 0 1-4.317-10.009l-5.12-72.468c-.928-13.2-12.016-23.541-25.244-23.541h-.194c-6.789.048-13.146 2.746-17.898 7.596-4.75 4.847-7.317 11.252-7.228 18.026l1.16 97.187a48.98 48.98 0 0 0 12.335 31.936l65.123 73.444a12.07 12.07 0 0 1 3.044 8.109l-.022 4.038a8.367 8.367 0 0 0 8.319 8.413h.047a8.367 8.367 0 0 0 8.365-8.319l.022-4.029a28.772 28.772 0 0 0-7.259-19.314l-65.122-73.443a32.25 32.25 0 0 1-8.123-21.029l-1.16-97.2a8.505 8.505 0 0 1 2.447-6.105c1.611-1.644 3.766-2.559 6.008-2.576h.134c4.482 0 8.239 3.506 8.553 7.986l5.12 72.461a33.326 33.326 0 0 0 8.689 20.163l42.883 46.653c7.571 8.223 20.378 9.261 29.168 2.356 5.224-4.116 8.22-10.288 8.22-16.934a21.48 21.48 0 0 0-5.583-14.466l-37.065-40.856c-2.026-2.235-1.998-5.714.074-7.926a5.758 5.758 0 0 1 4.258-1.837c1.587 0 3.068.622 4.175 1.761l61.618 63.114c.362.363.716.744 1.069 1.133 8.785 9.659 12.568 23.43 10.118 36.84l-9.437 51.702a8.366 8.366 0 1 0 16.458 3.004l9.437-51.701c3.382-18.504-1.927-37.609-14.191-51.093zm205.174-131.516c-4.746-4.836-11.097-7.528-17.937-7.576h-.134c-13.228 0-24.317 10.34-25.244 23.537l-5.12 72.465a16.595 16.595 0 0 1-4.318 10.016l-42.874 46.643c-1.697 1.841-4.558 2.076-6.514.538a4.778 4.778 0 0 1-1.833-3.784c0-.846.215-2.091 1.244-3.226l37.052-40.855c7.844-8.636 7.742-22.074-.222-30.586-4.242-4.546-10.252-7.152-16.49-7.152-6.144 0-11.882 2.421-16.147 6.805l-61.489 62.981c-.55.551-1.09 1.128-1.604 1.697-12.273 13.494-17.582 32.598-14.2 51.103l9.437 51.702a8.368 8.368 0 0 0 8.22 6.866 8.365 8.365 0 0 0 8.238-9.87l-9.437-51.704c-2.45-13.408 1.332-27.179 10.126-36.848.347-.381.701-.764 1.127-1.192l61.562-63.056a5.76 5.76 0 0 1 4.164-1.751 5.77 5.77 0 0 1 4.266 1.845c2.063 2.204 2.089 5.679.057 7.916l-37.056 40.858a21.486 21.486 0 0 0-5.583 14.468c0 6.659 2.998 12.835 8.229 16.942 8.781 6.899 21.591 5.858 29.164-2.368l42.876-46.646a33.395 33.395 0 0 0 8.691-20.154l5.121-72.476c.315-4.475 4.071-7.981 8.553-7.981h.074a8.515 8.515 0 0 1 6.057 2.568 8.544 8.544 0 0 1 2.46 6.122l-1.161 97.195a32.235 32.235 0 0 1-8.122 21.025l-65.118 73.439a28.762 28.762 0 0 0-7.263 19.308l.022 4.038c.026 4.62 3.835 8.361 8.411 8.32a8.366 8.366 0 0 0 8.321-8.412l-.022-4.049a12.065 12.065 0 0 1 3.046-8.103l65.121-73.441a48.977 48.977 0 0 0 12.335-31.932l1.16-97.191c.08-6.793-2.492-13.199-7.246-18.044zm6.089-144.884a48.978 48.978 0 0 0-12.335-31.936l-34.934-39.398a8.364 8.364 0 0 0-11.809-.709 8.366 8.366 0 0 0-.709 11.811l34.934 39.399a32.252 32.252 0 0 1 8.123 21.03l1.16 97.199a8.514 8.514 0 0 1-2.448 6.106 8.488 8.488 0 0 1-6.008 2.574h-.134c-4.482 0-8.24-3.507-8.554-7.984l-5.119-72.463a33.319 33.319 0 0 0-8.691-20.162l-42.882-46.654c-7.572-8.221-20.379-9.259-29.168-2.354-5.224 4.115-8.219 10.288-8.219 16.934a21.48 21.48 0 0 0 5.583 14.466l37.065 40.856c2.026 2.237 1.998 5.715-.074 7.928a5.755 5.755 0 0 1-4.257 1.836 5.771 5.771 0 0 1-4.176-1.761l-61.62-63.117a30.91 30.91 0 0 1-1.065-1.13c-8.785-9.66-12.568-23.43-10.117-36.84l9.437-51.702a8.366 8.366 0 0 0-6.727-9.732c-4.539-.832-8.903 2.182-9.732 6.727l-9.437 51.701c-3.381 18.505 1.926 37.61 14.194 51.099a45.827 45.827 0 0 0 1.544 1.635l61.54 63.036c4.276 4.395 10.015 6.815 16.159 6.815 6.239 0 12.248-2.607 16.481-7.143 7.969-8.512 8.077-21.948.245-30.592l-37.067-40.859a4.73 4.73 0 0 1-1.243-3.224c0-1.487.672-2.869 1.834-3.785 1.956-1.538 4.819-1.302 6.509.533l42.877 46.649a16.539 16.539 0 0 1 4.317 10.009l5.12 72.469c.928 13.199 12.017 23.541 25.245 23.541h.194c6.789-.048 13.145-2.745 17.898-7.595 4.75-4.847 7.317-11.252 7.228-18.027l-1.162-97.186z"/><path d="M383.416 37.903L368.039 20.56a12.064 12.064 0 0 1-3.044-8.111l.022-4.038a8.368 8.368 0 0 0-8.321-8.412h-.046a8.367 8.367 0 0 0-8.365 8.32l-.022 4.027a28.756 28.756 0 0 0 7.261 19.315l15.373 17.341a8.34 8.34 0 0 0 6.262 2.815 8.34 8.34 0 0 0 5.547-2.106 8.363 8.363 0 0 0 .71-11.808zM248.425 58.566l-9.437-51.702a8.366 8.366 0 0 0-16.459 3.005l9.437 51.704c2.45 13.408-1.332 27.179-10.126 36.847-.345.379-.696.76-1.128 1.192l-61.561 63.056a5.761 5.761 0 0 1-4.165 1.751 5.761 5.761 0 0 1-4.266-1.846c-2.063-2.203-2.088-5.679-.056-7.916l37.053-40.857a21.48 21.48 0 0 0 5.584-14.468c0-6.66-2.999-12.836-8.228-16.942-8.782-6.897-21.589-5.861-29.165 2.367l-42.877 46.649a33.402 33.402 0 0 0-8.689 20.153l-5.12 72.475c-.315 4.476-4.071 7.982-8.553 7.982h-.074a8.52 8.52 0 0 1-6.058-2.569 8.54 8.54 0 0 1-2.458-6.122l1.16-97.195a32.25 32.25 0 0 1 8.123-21.026l65.117-73.439a28.754 28.754 0 0 0 7.263-19.309l-.022-4.038a8.365 8.365 0 0 0-8.365-8.319h-.047a8.365 8.365 0 0 0-8.319 8.413l.022 4.048a12.066 12.066 0 0 1-3.047 8.103l-65.12 73.44a48.98 48.98 0 0 0-12.336 31.932l-1.16 97.19c-.08 6.788 2.493 13.195 7.246 18.039 4.75 4.841 11.1 7.534 17.941 7.583h.134c13.228 0 24.317-10.34 25.244-23.538l5.119-72.464a16.604 16.604 0 0 1 4.318-10.016l42.874-46.643c1.693-1.841 4.554-2.077 6.515-.537a4.78 4.78 0 0 1 1.832 3.783c0 .846-.215 2.091-1.245 3.225l-37.051 40.855c-7.845 8.637-7.744 22.075.221 30.585 4.242 4.547 10.252 7.153 16.491 7.153 6.144 0 11.883-2.421 16.149-6.805l61.48-62.974a49.456 49.456 0 0 0 1.612-1.703c12.27-13.493 17.579-32.597 14.197-51.102zm91.987 157.895c-10.855-16.599-27.449-26.119-45.526-26.119-16.103 0-30.351 9.281-38.885 23.419-8.534-14.138-22.782-23.419-38.885-23.419-31.419 0-56.98 29.428-56.98 65.6 0 15.545 6.163 31.623 18.318 47.79a8.367 8.367 0 0 0 13.374-10.056c-9.926-13.201-14.961-25.898-14.961-37.734 0-26.946 18.056-48.868 40.248-48.868 16.828 0 30.519 16.787 30.519 37.422a8.367 8.367 0 0 0 16.732 0c0-20.635 13.691-37.422 30.519-37.422 12.327 0 23.817 6.76 31.531 18.555 5.703 8.694 8.717 19.176 8.717 30.314 0 32.868-39.135 68.141-79.134 89.492-10.538-5.625-20.98-12.243-30.422-19.293-5.529-4.114-10.736-8.387-15.479-12.704a8.366 8.366 0 0 0-11.818.558 8.365 8.365 0 0 0 .558 11.818c5.149 4.685 10.785 9.312 16.742 13.744 11.314 8.446 23.978 16.319 36.623 22.768a8.36 8.36 0 0 0 7.608-.003c42.464-21.706 92.056-62.59 92.056-106.379-.001-14.409-3.964-28.064-11.455-39.483z"/></svg>