<svg viewBox="0 0 791 586" xmlns="http://www.w3.org/2000/svg"><style>.st0{fill:#43ccff}</style><path class="st0" d="M603.77 42.182c-12.728-20.827-37.026-33.555-64.795-33.555H90.035c-45.125 0-82.151 37.026-82.151 82.151v413.07c0 45.125 37.026 82.151 82.151 82.151h448.94c28.926 0 53.225-12.728 64.795-33.555l179.34-255.71z" fill="#43ccff" stroke-width="11.571"/><path d="M344.188 139.52c-79.37 0-143.942 64.573-143.942 143.942 0 26.817 7.428 52.987 21.486 75.692l114.259 184.134a11.995 11.995 0 0 0 10.191 5.67h.096a11.993 11.993 0 0 0 10.196-5.83L467.82 357.21c13.283-22.225 20.303-47.726 20.303-73.747 0-79.37-64.572-143.942-143.942-143.942zm103.055 205.374L346.01 513.922 242.133 346.517c-11.702-18.898-18.046-40.7-18.046-63.051 0-66.142 53.97-120.112 120.111-120.112s120.032 53.97 120.032 120.112c0 21.688-5.926 42.933-16.98 61.43z" fill-opacity="0"/><path d="M344.188 211.491c-39.685 0-71.971 32.286-71.971 71.971 0 39.432 31.76 71.972 71.971 71.972 40.706 0 71.971-32.974 71.971-71.972 0-39.685-32.286-71.97-71.97-71.97zm0 120.112c-26.595 0-48.14-21.618-48.14-48.14 0-26.457 21.683-48.141 48.14-48.141s48.06 21.684 48.06 48.14c0 26.136-21.044 48.141-48.06 48.141z" fill-opacity="0"/><g fill="#fff"><path d="M500.277 201.48H410.57v-64.076c0-21.198-17.246-38.445-38.445-38.445h-232.38c-21.2 0-38.446 17.247-38.446 38.445v153.781c0 21.2 17.247 38.446 38.445 38.446h12.815v38.445c0 10.263 11.464 16.302 19.924 10.663l56.967-37.978v52.945c0 21.199 17.247 38.446 38.445 38.446h125.981l73.662 49.108c8.472 5.648 19.924-.397 19.924-10.663v-38.445h12.815c21.198 0 38.445-17.247 38.445-38.446v-153.78c0-21.2-17.246-38.446-38.445-38.446zm-265.153 104.7l-.037.023-56.895 37.93v-27.315c0-7.077-5.737-12.815-12.815-12.815h-25.63c-7.066 0-12.815-5.749-12.815-12.815V137.407c0-7.066 5.749-12.815 12.815-12.815h232.38c7.067 0 12.816 5.749 12.816 12.815v153.781c0 7.066-5.75 12.815-12.816 12.815h-129.86c-2.48 0-5.042.767-7.143 2.176zm277.968 87.526c0 7.067-5.749 12.815-12.815 12.815h-25.63c-7.078 0-12.816 5.738-12.816 12.815v27.315l-56.967-37.978a12.812 12.812 0 0 0-7.108-2.152h-129.86c-7.066 0-12.815-5.748-12.815-12.815v-64.075h117.045c21.199 0 38.445-17.247 38.445-38.446V227.11h89.706c7.066 0 12.815 5.749 12.815 12.815z"/><path d="M267.896 227.11h-102.52c-7.078 0-12.816 5.738-12.816 12.815s5.738 12.815 12.815 12.815h102.521c7.078 0 12.815-5.738 12.815-12.815s-5.737-12.815-12.815-12.815zm78.6-51.26h-181.12c-7.078 0-12.816 5.737-12.816 12.815s5.738 12.815 12.816 12.815h181.12c7.077 0 12.815-5.738 12.815-12.815s-5.738-12.815-12.815-12.815z"/></g></svg>