<svg viewBox="0 0 791 586" xmlns="http://www.w3.org/2000/svg"><style>.st0{fill:#43ccff}</style><path class="st0" d="M603.77 42.182c-12.728-20.827-37.026-33.555-64.795-33.555H90.035c-45.125 0-82.151 37.026-82.151 82.151v413.07c0 45.125 37.026 82.151 82.151 82.151h448.94c28.926 0 53.225-12.728 64.795-33.555l179.34-255.71z" fill="#43ccff" stroke-width="11.571"/><g fill-opacity="0"><path d="M344.188 139.52c-79.37 0-143.942 64.573-143.942 143.942 0 26.817 7.428 52.987 21.486 75.692l114.259 184.134a11.995 11.995 0 0 0 10.191 5.67h.096a11.993 11.993 0 0 0 10.196-5.83L467.82 357.21c13.283-22.225 20.303-47.726 20.303-73.747 0-79.37-64.572-143.942-143.942-143.942zm103.055 205.374L346.01 513.922 242.133 346.517c-11.702-18.898-18.046-40.7-18.046-63.051 0-66.142 53.97-120.112 120.111-120.112s120.032 53.97 120.032 120.112c0 21.688-5.926 42.933-16.98 61.43z"/><path d="M344.188 211.491c-39.685 0-71.971 32.286-71.971 71.971 0 39.432 31.76 71.972 71.971 71.972 40.706 0 71.971-32.974 71.971-71.972 0-39.685-32.286-71.97-71.97-71.97zm0 120.112c-26.595 0-48.14-21.618-48.14-48.14 0-26.457 21.683-48.141 48.14-48.141s48.06 21.684 48.06 48.14c0 26.136-21.044 48.141-48.06 48.141z"/><path d="M515.268 218.798c-13.729-13.73-36.068-13.73-49.801.003l-35.313 35.342v-93.015c0-9.405-3.662-18.248-10.314-24.898l-33.197-33.199c-6.65-6.65-15.493-10.313-24.899-10.313H160.198c-19.415 0-35.212 15.796-35.212 35.212v330.211c0 19.416 15.797 35.212 35.212 35.212h234.747c19.416 0 35.213-15.796 35.213-35.212v-104.36l85.111-85.183c13.762-13.76 13.765-36.035 0-49.797zM359.733 116.19c2.217 0 6.49-.385 10.313 3.437l33.198 33.199c3.724 3.725 3.438 7.808 3.438 10.313h-46.95zm46.948 341.948c0 6.472-5.264 11.737-11.737 11.737H160.197c-6.472 0-11.737-5.265-11.737-11.737v-330.21c0-6.473 5.265-11.738 11.737-11.738h176.06v58.686c0 6.483 5.255 11.738 11.738 11.738h58.686v91.019l-34.63 34.659-16.59 16.592a11.737 11.737 0 0 0-2.836 4.588l-16.6 49.797a11.736 11.736 0 0 0 14.847 14.847l49.797-16.599a11.728 11.728 0 0 0 4.588-2.836l1.424-1.424zm-26.323-120.95l16.6 16.6-6.341 6.34-24.898 8.299 8.299-24.899zm33.195-.004l-16.599-16.599 56.422-56.469 16.599 16.6zm85.112-85.181l-12.1 12.11-16.6-16.6L482.07 235.4c4.58-4.577 12.024-4.576 16.6 0a11.731 11.731 0 0 1-.004 16.603z"/><path d="M347.995 210.089H183.672c-6.482 0-11.737 5.255-11.737 11.737s5.255 11.737 11.737 11.737h164.323c6.482 0 11.738-5.255 11.738-11.737s-5.256-11.737-11.738-11.737zm-46.949 46.949H183.672c-6.482 0-11.737 5.255-11.737 11.737s5.255 11.738 11.737 11.738h117.374c6.482 0 11.737-5.256 11.737-11.738s-5.255-11.737-11.737-11.737zm0 46.949H183.672c-6.482 0-11.737 5.256-11.737 11.738s5.255 11.737 11.737 11.737h117.374c6.482 0 11.737-5.255 11.737-11.737s-5.255-11.738-11.737-11.738zm0 46.95H183.672c-6.482 0-11.737 5.255-11.737 11.737s5.255 11.737 11.737 11.737h117.374c6.482 0 11.737-5.255 11.737-11.737s-5.255-11.737-11.737-11.737zm46.949 71.989h-70.424c-6.482 0-11.737 5.255-11.737 11.737s5.255 11.737 11.737 11.737h70.424c6.482 0 11.738-5.255 11.738-11.737s-5.256-11.737-11.738-11.737z"/></g><g fill="#fff"><path d="M508.954 220.978c-12.624-12.625-33.166-12.624-45.794.003l-32.471 32.498v-85.53c0-8.65-3.368-16.78-9.484-22.895l-30.526-30.528c-6.116-6.116-14.247-9.483-22.896-9.483H182.454c-17.854 0-32.379 14.525-32.379 32.379v303.641c0 17.854 14.525 32.38 32.379 32.38h215.859c17.854 0 32.379-14.526 32.379-32.38V345.1l78.263-78.328c12.654-12.654 12.657-33.136 0-45.791zm-143.02-94.352c2.039 0 5.968-.353 9.483 3.16l30.527 30.528c3.425 3.426 3.161 7.18 3.161 9.484h-43.172zm43.17 314.435c0 5.95-4.84 10.792-10.792 10.792h-215.86c-5.95 0-10.792-4.841-10.792-10.792V137.419c0-5.951 4.841-10.793 10.793-10.793h161.894v53.965c0 5.96 4.832 10.793 10.793 10.793h53.964v83.695l-31.843 31.87-15.256 15.257a10.793 10.793 0 0 0-2.608 4.219l-15.264 45.79a10.792 10.792 0 0 0 13.652 13.653l45.791-15.263a10.784 10.784 0 0 0 4.219-2.608l1.31-1.31zM384.9 329.843l15.264 15.263-5.83 5.83-22.895 7.632 7.631-22.896zm30.524-.004l-15.263-15.263 51.882-51.926 15.263 15.264zm78.264-78.328l-11.126 11.136-15.264-15.264 11.13-11.139c4.21-4.208 11.056-4.208 15.264 0a10.787 10.787 0 0 1-.004 15.267z"/><path d="M355.14 212.97h-151.1c-5.961 0-10.794 4.832-10.794 10.792s4.833 10.793 10.793 10.793H355.14c5.961 0 10.793-4.832 10.793-10.793s-4.832-10.792-10.793-10.792zm-43.171 43.171h-107.93c-5.96 0-10.793 4.833-10.793 10.793s4.833 10.793 10.793 10.793h107.93c5.96 0 10.793-4.832 10.793-10.793s-4.833-10.793-10.793-10.793zm0 43.172h-107.93c-5.96 0-10.793 4.832-10.793 10.793S198.08 320.9 204.04 320.9h107.93c5.96 0 10.793-4.832 10.793-10.793s-4.833-10.793-10.793-10.793zm0 43.172h-107.93c-5.96 0-10.793 4.832-10.793 10.793s4.833 10.793 10.793 10.793h107.93c5.96 0 10.793-4.833 10.793-10.793s-4.833-10.793-10.793-10.793zm43.171 66.197h-64.757c-5.96 0-10.793 4.832-10.793 10.793s4.832 10.793 10.793 10.793h64.757c5.961 0 10.793-4.833 10.793-10.793s-4.832-10.793-10.793-10.793z"/></g></svg>