<svg xmlns="http://www.w3.org/2000/svg" viewBox="0 0 469.5 469.5"><path d="M416.25 97a7.5 7.5 0 0 0 7.5-7.5V36.95C423.75 16.576 406.852 0 386.081 0H83.15c-20.972 0-37.4 16.23-37.4 36.95v335.1c0 20.926 16.777 37.95 37.4 37.95h73.6v52a7.501 7.501 0 0 0 10.854 6.708l36.646-18.323 36.646 18.323a7.502 7.502 0 0 0 7.297-.328 7.501 7.501 0 0 0 3.557-6.38v-52.013l134.33-.237c20.772 0 37.67-16.912 37.67-37.7V319.5a7.5 7.5 0 0 0-7.5-7.5h-52.5V97h52.5zm-7.5-60.05V82h-45V37.45c0-12.33 10.023-22.398 22.345-22.45 12.494.008 22.655 9.852 22.655 21.95zM240.718 340.384a7.538 7.538 0 0 0-2.625 2.339A52.363 52.363 0 0 1 204.6 354.85a52.365 52.365 0 0 1-35.176-13.56c-11.009-9.967-17.324-24.161-17.324-38.94 0-28.949 23.551-52.5 52.5-52.5s52.5 23.551 52.5 52.5c0 14.381-5.954 28.125-16.382 38.034zm-3.968 109.481l-29.146-14.573a7.498 7.498 0 0 0-6.708 0l-29.146 14.573v-88.566a67.283 67.283 0 0 0 32.85 8.551 67.333 67.333 0 0 0 32.15-8.168v88.183zm15-99.264c12.972-12.679 20.35-30.072 20.35-48.251 0-37.22-30.28-67.5-67.5-67.5s-67.5 30.28-67.5 67.5c0 17.806 7.12 34.943 19.65 47.569V395h-73.6c-12.352 0-22.4-10.295-22.4-22.95V36.95c0-12.309 9.839-21.95 22.4-21.95h273.108c-4.71 6.264-7.508 14.041-7.508 22.45v334.6c0 8.535 2.846 16.42 7.626 22.752l-104.626.185v-44.386zm157-23.601v45.05c0 12.298-10.369 22.688-22.662 22.7-12.319-.056-22.338-10.234-22.338-22.7V327h45z"/><path d="M204.6 264.85c-20.678 0-37.5 16.822-37.5 37.5s16.822 37.5 37.5 37.5 37.5-16.822 37.5-37.5-16.822-37.5-37.5-37.5zm0 60c-12.407 0-22.5-10.093-22.5-22.5s10.093-22.5 22.5-22.5 22.5 10.093 22.5 22.5-10.093 22.5-22.5 22.5zM304.75 152h-200a7.5 7.5 0 0 0 0 15h200a7.5 7.5 0 0 0 0-15zm-30 30h-140a7.5 7.5 0 0 0 0 15h140a7.5 7.5 0 0 0 0-15zm30-60h-30a7.5 7.5 0 0 0 0 15h30a7.5 7.5 0 0 0 0-15zm-200 15h140a7.5 7.5 0 0 0 0-15h-140a7.5 7.5 0 0 0 0 15zm25.245-41.411a7.469 7.469 0 0 0 4.6 1.581 7.49 7.49 0 0 0 5.925-2.895l17.419-22.39 17.411 22.388a7.499 7.499 0 0 0 11.839.001l17.419-22.39 17.411 22.388a7.5 7.5 0 0 0 11.84 0l17.41-22.387 17.41 22.387a7.498 7.498 0 0 0 10.524 1.316 7.499 7.499 0 0 0 1.316-10.524l-23.33-30a7.5 7.5 0 0 0-11.84 0l-17.41 22.387-17.41-22.387a7.499 7.499 0 0 0-11.839-.001l-17.419 22.39-17.411-22.387a7.499 7.499 0 0 0-11.839-.001l-23.34 30a7.499 7.499 0 0 0 1.314 10.524z"/></svg>