<svg xmlns="http://www.w3.org/2000/svg" viewBox="0 0 51 51" width="512" height="512"><g fill="#43ccff"><path d="M49.821 10.709a1.5 1.5 0 0 0-1.28-.709H38.87c-.956-5.666-5.885-10-11.819-10-6.617 0-12 5.383-12 12 0 5.677 4.142 8.968 5.701 10.207l.29.231c-.041.659-.235 2.135-1.164 2.786-.666.468-1.686.47-3.029.002-1.18-.411-2.293-1.134-3.308-2.15l-5.943-5.943a2.068 2.068 0 0 0-1.623-.604 2.087 2.087 0 0 0-1.523.841 18.094 18.094 0 0 0-3.401 12.652c.004.171.113 4.25 1.64 8.805 2.066 6.162 5.76 10.189 10.681 11.646 1.195.355 2.509.527 4.017.527h6.858c3.067 0 6.033-.888 8.576-2.567l.258-.171c7.136-4.798 9.717-13.971 6.004-21.337-1.101-2.184-2.617-3.924-4.516-5.182.381-.476.832-1.07 1.298-1.743h5.339c1.185 0 2.282-.305 3.174-.88 2.696-1.741 4.614-5.105 5.518-6.956.228-.469.2-1.013-.077-1.455zM37.3 27.825c3.26 6.468.967 14.541-5.369 18.8l-.208.139A13.53 13.53 0 0 1 24.247 49h-6.858c-1.313 0-2.44-.146-3.449-.444-10.4-3.08-10.885-18.425-10.894-18.659-.572-5.546 1.643-9.484 3.014-11.337l-.804-.595.928.582 5.943 5.942c1.229 1.231 2.597 2.114 4.063 2.625 1.986.692 3.611.606 4.837-.254 1.793-1.258 2.013-3.681 2.024-4.659a1.397 1.397 0 0 0-.435-1.043 10.538 10.538 0 0 0-.621-.518c-1.48-1.176-4.945-3.929-4.945-8.641 0-5.514 4.486-10 10-10 5.139 0 9.381 3.898 9.935 8.892l.018.199c.027.3.047.602.047.909 0 .309-.038.634-.094.965-.01.06-.019.119-.031.18-.136.7-.379 1.438-.705 2.19l-.018.042a19.41 19.41 0 0 1-1.216 2.302l-.121.191a27.864 27.864 0 0 1-2.25 3.102 1.41 1.41 0 0 0-.311 1.146c.071.417.323.78.691.998 1.825 1.079 3.274 2.663 4.305 4.71zm5.996-10.386c-.568.367-1.291.561-2.09.561h-4.079a21.443 21.443 0 0 0 .782-1.526l.085-.185c.078-.175.151-.35.222-.527.033-.082.069-.164.1-.245.056-.146.106-.293.157-.44.034-.1.073-.201.104-.299.026-.08.045-.161.069-.242.106-.359.194-.711.257-1.053.007-.035.016-.071.022-.106.03-.171.049-.337.068-.503.008-.065.02-.13.026-.195.021-.23.032-.457.032-.678h8.686c-.832 1.561-2.42 4.133-4.441 5.438z"/><path d="M34.051 10c0-2.757-2.243-5-5-5s-5 2.243-5 5 2.243 5 5 5 5-2.243 5-5zm-8 0c0-1.654 1.346-3 3-3 1.38 0 2.534.942 2.882 2.213A1.982 1.982 0 0 0 31.051 9a1.994 1.994 0 1 0-.891 3.782 2.99 2.99 0 0 1-1.109.218c-1.654 0-3-1.346-3-3zm.873 19.554c-1.601-.867-3.569-.72-5.859.441-2.33 1.183-5.005 2.101-8.177 2.807l-.379.084a1.603 1.603 0 0 0-1.144 2.153c.835 2.1 4.068 8.942 10.642 8.973.081.006.235.016.445.016.977 0 3.169-.201 4.972-1.82 1.744-1.567 2.628-3.988 2.628-7.195l-.006-.107c-.018-.159-.449-3.902-3.122-5.352zm-.821 11.151c-1.67 1.515-3.928 1.313-3.945 1.313l-.106-.006c-4.971 0-7.709-5.106-8.647-7.276 3.302-.74 6.105-1.708 8.567-2.958 1.66-.843 3.004-1.004 3.993-.47 1.63.878 2.036 3.398 2.087 3.766-.012 2.573-.667 4.467-1.949 5.631z"/></g></svg>