<svg xmlns="http://www.w3.org/2000/svg" viewBox="0 0 512 512"><path d="M424.019 195l54.453-81.679c6.639-9.96-.529-23.321-12.481-23.321h-150c-8.271 0-15-6.728-15-14.998V75c0-24.813-20.187-45-45-45h-107.58c-6.192-17.459-22.865-30-42.42-30-24.813 0-45 20.187-45 45v437h-15c-8.284 0-15 6.716-15 15s6.716 15 15 15h120c8.284 0 15-6.716 15-15s-6.716-15-15-15h-15V270h122.58c6.192 17.458 22.865 30 42.42 30h150c11.969 0 19.111-13.376 12.481-23.321L424.019 195zM120.991 482h-30V45c0-8.271 6.729-15 15-15s15 6.729 15 15v437zm150-242h-120V60h105c8.271 0 15 6.729 15 15v165zm45 30c-8.271 0-15-6.729-15-15V117.42a44.785 44.785 0 0 0 15 2.58h121.972l-44.453 66.679a15 15 0 0 0 0 16.641L437.963 270H315.991z"/></svg>