<svg xmlns="http://www.w3.org/2000/svg" viewBox="0 0 512 512"><path d="M386.859 89.652a7.602 7.602 0 0 0 10.753 0l29.005-29.005a7.602 7.602 0 0 0 0-10.753L378.952 2.227a7.602 7.602 0 0 0-10.753 0l-61.018 61.018-14.485-14.485a7.602 7.602 0 0 0-10.753 0l-89.504 89.504a7.602 7.602 0 0 0 0 10.753 43.75 43.75 0 0 1 5.461 6.658l-32.771-4.106a7.605 7.605 0 0 0-6.322 2.169l-22.698 22.698a7.603 7.603 0 0 0 5.376 12.98h27.717l28.535 14.232a42.836 42.836 0 0 1-2.468 3.304 28.616 28.616 0 0 0-3.176-3.722c-5.429-5.344-12.648-8.217-20.233-8.099-14.961.239-27.141 12.138-27.73 27.088l-2.914 73.941c-1.1 27.921 6.812 55.729 22.354 78.886l-23.141 36.59a7.604 7.604 0 0 0 12.852 8.129l25.847-40.869a7.603 7.603 0 0 0-.288-8.551c-15.498-21.207-23.463-47.34-22.429-73.587l2.914-73.941c.272-6.888 5.884-12.371 12.777-12.482 3.49-.045 6.821 1.269 9.322 3.732a12.898 12.898 0 0 1 3.88 9.262v40.81c0 13.982 8.025 25.991 20.941 31.341 12.919 5.35 27.083 2.534 36.97-7.354l96.853-96.853c5.021-5.018 13.187-5.017 18.207.003 5.021 5.021 5.021 13.189 0 18.21l-79.813 79.813a7.602 7.602 0 0 0 0 10.753 7.602 7.602 0 0 0 10.753 0l42.138-42.138c5.021-5.02 13.189-5.02 18.21 0 5.021 5.021 5.021 13.189 0 18.21L312.14 313.55a7.602 7.602 0 0 0 5.376 12.98 7.58 7.58 0 0 0 5.377-2.227l33.005-33.005c5.02-5.019 13.188-5.02 18.209 0 5.021 5.021 5.021 13.189 0 18.21l-39.066 39.067a7.602 7.602 0 0 0 5.376 12.98 7.582 7.582 0 0 0 5.377-2.227l19.194-19.194.003-.002a12.795 12.795 0 0 1 9.104-3.772c3.439 0 6.673 1.339 9.104 3.772 5.02 5.021 5.02 13.189 0 18.21l-54.468 54.468c-19.461 19.461-45.254 31.754-72.627 34.613a7.603 7.603 0 0 0-5.574 3.401l-32.307 49.406a7.605 7.605 0 0 0 12.729 8.324l30.363-46.435c29.474-3.893 57.113-17.499 78.169-38.556l54.469-54.469c10.949-10.95 10.949-28.767-.001-39.717a27.939 27.939 0 0 0-11.31-6.9l2.216-2.216c10.95-10.95 10.95-28.767 0-39.717a27.946 27.946 0 0 0-16.85-8.046 28.37 28.37 0 0 0 .531-5.477c0-7.502-2.921-14.554-8.225-19.858a27.95 27.95 0 0 0-11.31-6.9l20.022-20.022c10.95-10.95 10.95-28.767 0-39.717a27.897 27.897 0 0 0-11.324-6.886l24.56-24.56a7.604 7.604 0 0 0 0-10.753l-16.664-16.664 11.735-11.735a7.602 7.602 0 0 0 0-10.753 7.602 7.602 0 0 0-10.753 0l-11.735 11.735-5.828-5.828 55.642-55.641 5.828 5.828-23.63 23.631a7.607 7.607 0 0 0 .002 10.754zM174.385 175.01a7.6 7.6 0 0 0-3.393-.8h-11.15l7.087-7.087 37.457 4.693c.454 2.526.698 5.108.698 7.728 0 3.472-.415 6.881-1.206 10.174l-29.493-14.708zm191.749-31.305L232.462 277.377c-6.52 6.52-14.811 6.37-20.397 4.056-5.585-2.314-11.554-8.07-11.554-17.291v-40.81c0-.26-.012-.517-.019-.775a7.572 7.572 0 0 0 2.699-1.735c11.026-11.026 17.099-25.685 17.099-41.279 0-13.029-4.24-25.407-12.067-35.558l79.096-79.096 78.815 78.816zM338.265 94.33l-20.332-20.332 55.642-55.642 20.332 20.332-55.642 55.642z"/><path d="M346.606 135.581l-52.207-52.207a7.602 7.602 0 0 0-10.753 0L222.36 144.66a7.602 7.602 0 0 0 0 10.753l52.207 52.207a7.604 7.604 0 0 0 10.753 0l61.286-61.286a7.6 7.6 0 0 0 0-10.753zm-66.662 55.908l-6.197-6.197 22.231-22.231a7.602 7.602 0 0 0 0-10.753 7.602 7.602 0 0 0-10.753 0l-22.231 22.231-10.529-10.529 22.231-22.23a7.602 7.602 0 0 0 0-10.753 7.601 7.601 0 0 0-10.753 0l-22.231 22.23-3.221-3.221 50.532-50.532 41.454 41.453-50.533 50.532zM138.077 429.58a7.606 7.606 0 0 0-10.491 2.362L84.333 500.33a7.604 7.604 0 0 0 12.852 8.129l43.252-68.388a7.602 7.602 0 0 0-2.36-10.491z"/></svg>