<svg xmlns="http://www.w3.org/2000/svg" viewBox="0 0 512 512"><path d="M446.376 194.77a8.398 8.398 0 0 0-8.398 8.398v292.034H135.803a8.398 8.398 0 0 0 0 16.796h310.573a8.398 8.398 0 0 0 8.398-8.398V203.169a8.398 8.398 0 0 0-8.398-8.399z"/><path d="M488.143 166.443L260.932 1.6a8.403 8.403 0 0 0-9.864 0l-93.904 68.128V39.313a8.398 8.398 0 0 0-8.398-8.398H79.239a8.398 8.398 0 0 0-8.398 8.398v93.043l-46.985 34.087a8.397 8.397 0 0 0 4.932 15.196h28.437v321.962a8.398 8.398 0 0 0 8.398 8.398h41.839a8.398 8.398 0 0 0 0-16.796H74.021V181.64h409.19a8.399 8.399 0 0 0 4.932-15.197zM87.638 47.711h52.729v34.204L87.638 120.17V47.711zM54.665 164.843L256 18.774l201.334 146.069H54.665z"/><path d="M256.001 68.28c-22.175 0-40.216 18.041-40.216 40.216s18.041 40.216 40.216 40.216 40.215-18.041 40.215-40.216-18.04-40.216-40.215-40.216zM256 131.915c-12.913 0-23.419-10.506-23.419-23.419S243.086 85.077 256 85.077s23.418 10.506 23.418 23.419-10.505 23.419-23.418 23.419zm111.947 261.947h-12.144V279.707a8.398 8.398 0 0 0-16.796 0v114.155h-74.608V241.557h74.608v8.688a8.398 8.398 0 1 0 16.796.001V233.16a8.398 8.398 0 0 0-8.398-8.398h-182.81a8.398 8.398 0 0 0-8.398 8.398v160.703h-12.144a8.398 8.398 0 0 0-8.398 8.398v35.351a8.398 8.398 0 0 0 8.398 8.398h223.895a8.398 8.398 0 0 0 8.398-8.398V402.26a8.4 8.4 0 0 0-8.399-8.398zM172.993 241.557h74.608v42.595h-74.608v-42.595zm0 59.392h74.609v92.912h-74.609v-92.912zm186.556 128.263H152.451v-18.555h207.098v18.555z"/></svg>