<svg xmlns="http://www.w3.org/2000/svg" viewBox="0 0 398.812 398.812"><path d="M126.381 326.797a9 9 0 0 1-9 9H81.16l-.209.002a9 9 0 0 1-9-9V266.51c0-4.971 4.029-9 9-9s9 4.029 9 9v51.286h27.43c4.97.001 9 4.03 9 9.001zm68.432-158.131a97.319 97.319 0 0 1-1.847-18.922c0-47.825 34.688-86.733 77.326-86.733 42.639 0 77.328 38.908 77.328 86.733 0 6.379-.621 12.746-1.847 18.921a9.003 9.003 0 0 1-10.203 7.143c-21.185-3.274-43.11-4.937-65.17-4.942-14.399.349-27.867-4.812-37.838-14.526-9.411-9.17-15.153-21.962-16.067-35.562-3.547 8.807-5.529 18.625-5.529 28.967 0 2.336.102 4.667.304 6.98l.987-.13a8.997 8.997 0 0 1 10.084 7.766c.641 4.929-2.837 9.444-7.766 10.084-3.118.405-6.333.864-9.558 1.363a9.002 9.002 0 0 1-10.204-7.142zm97.887-15.252c-9.737-9.665-16.94-21.498-20.876-34.253-11.938 5.279-25.131 5.813-37.256 1.77.882 8.687 4.62 16.733 10.556 22.516 6.582 6.413 15.198 9.67 24.921 9.422l.055-.001c.079-.002.153-.002.239-.002 7.474 0 14.936.184 22.361.548zm-62.191-54.617c12.629 9.285 28.999 9.226 41.717-.727a8.942 8.942 0 0 1 4.888-2.004 8.968 8.968 0 0 1 4.653.817 8.939 8.939 0 0 1 2.437 1.686 8.982 8.982 0 0 1 2.678 5.457c2.112 16.34 11.217 31.743 24.992 42.275 4.848 3.706 10.099 6.691 15.608 8.875.68.27 1.308.612 1.88 1.016.172-2.139.259-4.292.259-6.448 0-37.9-26.614-68.733-59.328-68.733-15.293 0-29.253 6.738-39.784 17.786zm167.563 224.435l-27.636-64.011c-8.624-19.972-17.742-34.128-28.696-44.551-14.487-13.784-32.359-20.773-53.12-20.773h-36.656c-20.761 0-38.633 6.989-53.12 20.773-10.953 10.422-20.071 24.578-28.697 44.552l-27.634 64.01a9 9 0 0 0 4.696 11.83 8.999 8.999 0 0 0 11.83-4.695l27.634-64.01c16.485-38.173 36.011-54.46 65.292-54.46h36.656c29.282 0 48.809 16.287 65.291 54.46l27.636 64.011a9.003 9.003 0 0 0 8.268 5.435 9 9 0 0 0 8.256-12.571zM147.72 211.117c4.971 0 9-4.029 9-9s-4.029-9-9-9h-36.89c-20.876 0-38.847 7.027-53.415 20.888-11.016 10.481-20.188 24.719-28.867 44.812L.739 323.232a9 9 0 0 0 4.695 11.83 8.973 8.973 0 0 0 3.563.74 9.002 9.002 0 0 0 8.267-5.435l27.809-64.415c16.603-38.436 36.268-54.835 65.757-54.835h36.89zm202.935 111.824l-27.45-61.748c-2.019-4.542-7.336-6.585-11.88-4.568a8.999 8.999 0 0 0-4.567 11.88l21.913 49.293H211.912l21.914-49.293a9 9 0 0 0-16.447-7.312l-27.452 61.748a8.986 8.986 0 0 0-.756 5.271 8.958 8.958 0 0 0 1.125 3.141 8.959 8.959 0 0 0 3.488 3.367 8.938 8.938 0 0 0 1.662.693 8.942 8.942 0 0 0 2.867.386h143.955a8.962 8.962 0 0 0 2.829-.375 8.931 8.931 0 0 0 1.716-.713 8.945 8.945 0 0 0 3.48-3.373 8.914 8.914 0 0 0 1.114-3.116 8.935 8.935 0 0 0-.057-3.168 8.834 8.834 0 0 0-.695-2.113zM66.496 119.783a53.9 53.9 0 0 1 8.86-29.673c.23-.407.494-.798.789-1.168 9.797-14.113 26.117-23.37 44.56-23.37 29.892 0 54.21 24.319 54.21 54.211s-24.319 54.21-54.21 54.21c-29.891 0-54.209-24.319-54.209-54.21zm18 0c0 19.966 16.243 36.21 36.209 36.21 19.966 0 36.21-16.244 36.21-36.21 0-19.967-16.244-36.211-36.21-36.211-10.17 0-19.376 4.216-25.959 10.991a36.175 36.175 0 0 0 25.959 10.964c4.179 0 8.274-.705 12.171-2.095a8.999 8.999 0 0 1 11.5 5.454 8.999 8.999 0 0 1-5.454 11.5 54.083 54.083 0 0 1-18.218 3.141 54.142 54.142 0 0 1-35.05-12.849 36.212 36.212 0 0 0-1.158 9.105z"/></svg>