<svg viewBox="0 0 791 586" xmlns="http://www.w3.org/2000/svg"><style>.st0{fill:#43ccff}</style><path class="st0" d="M603.77 42.182c-12.728-20.827-37.026-33.555-64.795-33.555H90.035c-45.125 0-82.151 37.026-82.151 82.151v413.07c0 45.125 37.026 82.151 82.151 82.151h448.94c28.926 0 53.225-12.728 64.795-33.555l179.34-255.71z" fill="#43ccff" stroke-width="11.571"/><path d="M344.188 139.52c-79.37 0-143.942 64.573-143.942 143.942 0 26.817 7.428 52.987 21.486 75.692l114.259 184.134a11.995 11.995 0 0 0 10.191 5.67h.096a11.993 11.993 0 0 0 10.196-5.83L467.82 357.21c13.283-22.225 20.303-47.726 20.303-73.747 0-79.37-64.572-143.942-143.942-143.942zm103.055 205.374L346.01 513.922 242.133 346.517c-11.702-18.898-18.046-40.7-18.046-63.051 0-66.142 53.97-120.112 120.111-120.112s120.032 53.97 120.032 120.112c0 21.688-5.926 42.933-16.98 61.43z" fill-opacity="0"/><path d="M344.188 211.491c-39.685 0-71.971 32.286-71.971 71.971 0 39.432 31.76 71.972 71.971 71.972 40.706 0 71.971-32.974 71.971-71.972 0-39.685-32.286-71.97-71.97-71.97zm0 120.112c-26.595 0-48.14-21.618-48.14-48.14 0-26.457 21.683-48.141 48.14-48.141s48.06 21.684 48.06 48.14c0 26.136-21.044 48.141-48.06 48.141z" fill-opacity="0"/><path d="M496.336 238.608H403.13c9.59-17.001 15.976-33.18 19.048-48.298 3.913-19.258 2.256-36.508-4.794-49.888-8.231-15.62-23.576-24.983-41.048-25.047h-.179c-11.932 0-20.845 4.358-26.487 12.952-4.394 6.691-6.154 14.844-8.192 24.283-4.89 22.647-11.553 53.493-58.674 86-7.746.001-25.605.002-36.992.001-5.093-14.36-18.807-24.677-34.892-24.677h-86.37c-6.813 0-12.337 5.525-12.337 12.338V448.35c0 6.814 5.524 12.338 12.337 12.338h86.362c16.084 0 29.798-10.316 34.892-24.676h14.424c41.432 11.518 84.371 24.676 129.062 24.676h57.685c20.41 0 37.013-16.605 37.013-37.014a36.8 36.8 0 0 0-2.617-13.642c21.102-5.751 32.895-28.705 24.676-49.352 26.52-7.228 36.185-39.914 17.837-60.384 21.306-23.771 4.35-61.69-27.558-61.69zm-273.077 12.436h-.001v172.631c0 6.803-5.534 12.337-12.337 12.337h-74.027V238.604h74.027c6.803 0 12.338 5.535 12.338 12.337zm211.392 61.592h61.69c6.803 0 12.337 5.535 12.337 12.337 0 6.804-5.535 12.337-12.338 12.337h-61.689c-6.814 0-12.338 5.525-12.338 12.338 0 6.814 5.525 12.338 12.338 12.338h37.013c6.804 0 12.338 5.535 12.338 12.338 0 6.803-5.535 12.337-12.338 12.337h-37.013c-6.814 0-12.338 5.525-12.338 12.338s5.525 12.338 12.338 12.338h12.338c6.803 0 12.337 5.535 12.337 12.337s-5.535 12.338-12.337 12.338h-57.685c-41.648 0-83.598-13.004-124.085-24.227-2.095-.58-1.867-.284-17.28-.284V263.118c18.894 0 38.726.163 38.726.163a12.325 12.325 0 0 0 6.777-2.072c58.218-38.812 66.947-79.239 72.162-103.397 3.842-17.79 4.488-17.785 10.648-17.767 8.431.03 15.289 4.248 19.309 11.875 3.87 7.345 13.515 35.69-24.836 92.079-5.56 8.175.31 19.277 10.201 19.277h115.415c6.804 0 12.338 5.535 12.338 12.337 0 6.804-5.535 12.338-12.338 12.338h-61.69c-6.813 0-12.337 5.525-12.337 12.338 0 6.814 5.524 12.338 12.338 12.338z" fill="#fff"/><circle cx="89.995" cy="390.91" r="14.999" transform="translate(112.22 77.458) scale(.82257)" fill="#fff"/></svg>