<svg xmlns="http://www.w3.org/2000/svg" viewBox="0 0 512 512"><path d="M466.974 195.914H353.665c11.658-20.668 19.422-40.337 23.156-58.715 4.758-23.413 2.743-44.384-5.828-60.649-10.006-18.99-28.661-30.373-49.902-30.45h-.217c-14.506 0-25.341 5.298-32.201 15.746-5.341 8.134-7.481 18.045-9.958 29.521-5.945 27.532-14.046 65.031-71.331 104.547-9.416.001-31.128.002-44.971.001-6.191-17.458-22.864-30-42.418-30H14.999c-8.283.001-14.999 6.717-14.999 15V450.9c0 8.284 6.716 14.999 14.999 14.999h104.994c19.554 0 36.226-12.541 42.418-29.998h17.536c50.368 14.002 102.569 29.998 156.902 29.998h70.128c24.812 0 44.997-20.186 44.997-44.997a44.735 44.735 0 0 0-3.181-16.585c25.653-6.992 39.99-34.897 29.998-59.997 32.241-8.788 43.991-48.524 21.685-73.41 25.902-28.898 5.288-74.996-33.502-74.996zm-331.982 15.119h-.001l.001.018v209.851c0 8.27-6.729 14.998-14.999 14.998H29.998V195.914h89.995c8.271 0 14.999 6.729 14.999 14.999v.12zm256.986 74.877h74.996c8.271 0 14.999 6.729 14.999 14.999 0 8.271-6.729 14.998-14.999 14.998h-74.996c-8.284 0-14.999 6.716-14.999 14.999 0 8.284 6.716 14.999 14.999 14.999h44.997c8.271 0 14.999 6.729 14.999 14.999 0 8.271-6.729 14.999-14.999 14.999h-44.997c-8.284 0-14.999 6.716-14.999 14.999s6.716 14.999 14.999 14.999h14.999c8.271 0 14.999 6.729 14.999 14.999s-6.729 14.999-14.999 14.999h-70.128c-50.631 0-101.634-15.809-150.852-29.453-2.547-.705-2.27-.345-21.006-.345V225.714c22.968.001 47.078.199 47.078.199a14.983 14.983 0 0 0 8.239-2.519c70.776-47.184 81.388-96.331 87.728-125.695 4.67-21.628 5.456-21.622 12.944-21.6 10.25.037 18.587 5.165 23.474 14.437 4.704 8.929 16.431 43.388-30.193 111.943-6.76 9.938.376 23.435 12.402 23.435h140.311c8.271 0 14.999 6.729 14.999 14.999 0 8.271-6.729 14.999-14.999 14.999h-74.996c-8.284 0-14.999 6.716-14.999 14.999 0 8.284 6.715 14.999 14.999 14.999z"/><circle cx="89.995" cy="390.907" r="14.999"/></svg>