<svg id="Слой_1" data-name="Слой 1" xmlns="http://www.w3.org/2000/svg" viewBox="0 0 300 336"><defs><style>.cls-1{fill:url(#Безымянный_градиент_29)}.cls-2{fill:#fff}.cls-3{fill:#e30613}</style><linearGradient id="Безымянный_градиент_29" x1="23" y1="164.77" x2="275.92" y2="164.77" gradientUnits="userSpaceOnUse"><stop offset="0" stop-color="#f01"/><stop offset=".1" stop-color="#ec0c22"/><stop offset=".32" stop-color="#bc2c50"/><stop offset=".62" stop-color="#6d5e99"/><stop offset=".99" stop-color="#03a3fc"/><stop offset="1" stop-color="#00a5ff"/></linearGradient></defs><title>paltseva_school_logo</title><path class="cls-1" d="M171.91 63.11A54.82 54.82 0 0 0 66.29 51a55.36 55.36 0 0 0 66.22 71.86 57 57 0 0 1-7.33 3.8 55.37 55.37 0 0 1-69.87-23.51 126.44 126.44 0 1 0 116.6-40.06z"/><path class="cls-2" d="M233.84 171.73a94.5 94.5 0 0 0-26.45-32.63 45.41 45.41 0 0 1-53.52 26h.88c.91.07 1.82.13 2.73.14a42.13 42.13 0 1 0-41.52-40 94.11 94.11 0 0 0-22.67 163.59 10.62 10.62 0 0 0 16.3-12.28 59.32 59.32 0 0 0-5.71-11.55c-5.06-7.8-10.65-14.84-15.88-22-1.75-2.39-3.46-4.79-5.11-7.24a82.93 82.93 0 0 1-5.47-8.88c-.1-.17-.19-.34-.28-.51-.31-.6-.63-1.19-.93-1.79A78 78 0 0 1 69.75 208c-.15-.57-1.08-5.86-1.42-8a11.66 11.66 0 0 1 23-3.69 62.08 62.08 0 0 0 28.42 43 35 35 0 1 1 65-13.11c-.17 1.2-.4 2.37-.68 3.52a34.74 34.74 0 0 1-6.91 14A62.12 62.12 0 0 0 214 196.25a11.53 11.53 0 0 1 11.47-9.61c7.09 0 12.78 6.32 11.55 13.3-4.69 26.4-32.89 60.25-43.87 70.14-1.85 1.67-3.54 3.59-5.46 5.43l-.24.24c-7.49 7.31-.81 18.29 7.72 18.12a10.7 10.7 0 0 0 5.68-1.82 94.06 94.06 0 0 0 33-120.32z"/><path class="cls-3" d="M207 170.5a9.27 9.27 0 0 0-11.56 2.18 9.23 9.23 0 0 0-16.33 5.85 8.71 8.71 0 0 0 .46 2.81c1.58 7.07 15.87 16 15.87 16s14.28-8.9 15.87-16a9 9 0 0 0 .46-2.81 9.17 9.17 0 0 0-4.77-8.03z"/></svg>