<svg xmlns="http://www.w3.org/2000/svg" viewBox="0 0 512.002 512.002"><path d="M358.846 42.599a8.476 8.476 0 0 0-11.988 0 8.477 8.477 0 0 0 0 11.989c24.269 24.268 37.633 56.534 37.633 90.856v126.764l-43.739 14.66-135.074-42.435a8.477 8.477 0 0 0-5.082 16.174l112.787 35.433-95.082 31.868a8.478 8.478 0 0 0 5.387 16.076l160.803-53.896v76.468c0 12.732-1.871 25.034-5.335 36.654l-251.643-79.058v-86.505l45.416 14.268a8.466 8.466 0 0 0 2.543.392 8.477 8.477 0 0 0 2.539-16.567l-50.498-15.865v-74.434c-.001-70.848 57.639-128.488 128.488-128.488 24.093 0 47.578 6.706 67.912 19.391a8.477 8.477 0 0 0 11.679-2.705 8.476 8.476 0 0 0-2.706-11.679C309.859 7.594 283.272 0 256.001 0c-80.197 0-145.443 65.245-145.443 145.443v80.539a6.734 6.734 0 0 0 0 .201v104.076a6.734 6.734 0 0 0 0 .201v36.097c0 38.028 14.677 72.687 38.655 98.63.382.527.827.99 1.311 1.408 26.521 27.949 63.999 45.406 105.478 45.406 62.412 0 115.761-39.516 136.358-94.842.115-.267.24-.527.329-.809.028-.09.045-.181.07-.272 5.616-15.464 8.686-32.14 8.686-49.521V145.443c0-38.849-15.129-75.374-42.599-102.844zM256.001 495.046c-32.045 0-61.388-11.794-83.917-31.266l91.874-30.79a8.477 8.477 0 0 0 5.344-10.732 8.476 8.476 0 0 0-10.732-5.344l-99.869 33.47c-19.426-22.518-31.189-51.823-31.189-83.826v-24.633l183.134 57.534-19.751 6.619a8.478 8.478 0 0 0 5.387 16.076l41.902-14.043 35.052 11.013c-20.127 44.713-65.103 75.922-117.235 75.922z"/><path d="M256.001 52.43c-52.424 0-95.075 42.651-95.075 95.075s42.651 95.075 95.075 95.075 95.075-42.651 95.075-95.075-42.65-95.075-95.075-95.075zm0 173.195c-43.076 0-78.121-35.045-78.121-78.12s35.045-78.121 78.121-78.121 78.121 35.045 78.121 78.121c0 43.076-35.044 78.12-78.121 78.12z"/><path d="M292.757 178.767a8.476 8.476 0 0 0-11.988 0c-6.616 6.616-15.412 10.259-24.768 10.259-9.357 0-18.153-3.643-24.768-10.259a8.476 8.476 0 0 0-11.988 0 8.476 8.476 0 0 0 0 11.988c9.818 9.818 22.872 15.225 36.756 15.225s26.938-5.407 36.756-15.225a8.476 8.476 0 0 0 0-11.988zm-77.329-53.771c-13.769 0-24.973 11.202-24.973 24.973a8.477 8.477 0 0 0 16.954 0c0-4.422 3.598-8.018 8.018-8.018 4.421 0 8.018 3.597 8.018 8.018a8.477 8.477 0 0 0 16.954 0c.002-13.77-11.202-24.973-24.971-24.973zm81.147 0c-13.77 0-24.973 11.202-24.973 24.973a8.477 8.477 0 0 0 16.954 0c0-4.422 3.597-8.018 8.018-8.018s8.018 3.597 8.018 8.018a8.477 8.477 0 0 0 16.954 0c.002-13.77-11.201-24.973-24.971-24.973z"/></svg>