<svg xmlns="http://www.w3.org/2000/svg" viewBox="0 0 511.999 511.999"><path d="M397.952 233.409h-40.14c-5.538-12.312-13.209-23.415-22.861-33.067a111.44 111.44 0 0 0-28.688-20.751c-6.094-3.072-9.88-9.207-9.88-16.009 0-17.128 5.6-33.493 15.76-46.075 10.341-12.774 16.035-28.869 16.035-45.32 0-19.801-7.858-38.27-22.125-52.005C291.787 6.448 273.011-.699 253.16.054c-36.666 1.413-67.069 31.188-69.213 67.779-1.04 17.587 4.328 34.881 15.113 48.693 10.83 13.886 16.555 30.012 16.555 46.635v.399c0 6.732-3.722 12.943-9.481 15.821-15.626 7.811-29.4 19.369-39.834 33.425a8.596 8.596 0 0 0 1.779 12.027 8.597 8.597 0 0 0 12.027-1.779c8.834-11.899 20.493-21.684 33.717-28.295 11.535-5.765 18.987-18.011 18.987-31.2v-.399c0-20.491-6.982-40.273-20.194-57.213-8.211-10.515-12.296-23.69-11.503-37.104 1.633-27.864 24.787-50.532 52.707-51.609 15.123-.574 29.441 4.871 40.311 15.334 10.87 10.464 16.857 24.535 16.857 39.619 0 12.706-4.221 24.638-12.212 34.51-12.628 15.638-19.583 35.839-19.583 56.885 0 13.333 7.408 25.351 19.334 31.363a94.316 94.316 0 0 1 24.269 17.555 94.142 94.142 0 0 1 15.77 20.908h-11.968a8.597 8.597 0 1 0 0 17.194h71.356c8.99 0 16.303 7.313 16.303 16.304v3.048c0 8.99-7.313 16.303-16.303 16.303H114.047c-8.99 0-16.303-7.313-16.303-16.303v-3.048c0-8.99 7.313-16.303 16.303-16.303h183.892a8.597 8.597 0 1 0 0-17.194H114.047c-18.471 0-33.498 15.026-33.498 33.498v3.048c0 18.471 15.027 33.498 33.498 33.498h20.709c-10.902 20.422-16.61 43.186-16.61 66.67 0 78.232 63.653 141.878 141.893 141.878 78.232 0 141.879-63.646 141.879-141.878 0-23.484-5.707-46.248-16.609-66.67h12.643c18.471 0 33.498-15.027 33.498-33.498v-3.048c0-18.471-15.027-33.498-33.498-33.498zM260.039 494.806c-68.758 0-124.699-55.932-124.699-124.684 0-23.799 6.663-46.751 19.306-66.67h30.4c-16.154 18.183-25.37 41.852-25.37 66.67 0 55.333 45.022 100.35 100.363 100.35s100.363-45.017 100.363-100.35c0-17.43-4.544-34.603-13.14-49.662a8.599 8.599 0 0 0-14.933 8.525c7.116 12.467 10.878 26.692 10.878 41.138 0 45.852-37.309 83.155-83.169 83.155s-83.169-37.303-83.169-83.155c0-26.271 12.459-50.995 33.458-66.67h155.09c12.643 19.919 19.307 42.871 19.307 66.67 0 68.75-55.934 124.683-124.685 124.683z"/></svg>