<svg xmlns="http://www.w3.org/2000/svg" viewBox="0 0 470 470"><path d="M367.497 223.141a7.5 7.5 0 0 0-7.5 7.5V360h-87.5a7.5 7.5 0 0 0-7.5 7.5V455h-235V15h330.839a7.5 7.5 0 0 0 14.161-3.45V7.5a7.5 7.5 0 0 0-7.5-7.5h-345a7.5 7.5 0 0 0-7.5 7.5v455a7.5 7.5 0 0 0 7.5 7.5h250c.251 0 .501-.013.749-.038.186-.019.368-.05.549-.082.059-.01.119-.015.178-.026.214-.043.423-.099.63-.158.026-.008.054-.013.08-.021.208-.063.41-.138.609-.218.027-.011.054-.019.081-.029.189-.079.371-.168.552-.261.037-.02.076-.035.112-.055a7.24 7.24 0 0 0 .48-.287c.05-.031.102-.059.151-.092.146-.098.285-.205.423-.313.055-.043.113-.081.167-.125a7.79 7.79 0 0 0 .486-.439c.018-.019.039-.033.057-.052l95-95 .042-.046c.157-.16.308-.324.451-.498.039-.047.071-.098.109-.145.114-.146.227-.292.33-.446.028-.041.05-.085.077-.127.106-.164.209-.331.301-.504.017-.03.029-.063.045-.094a7.98 7.98 0 0 0 .269-.569c.009-.022.015-.045.024-.066.082-.204.159-.411.223-.623.008-.025.012-.052.02-.077.061-.208.116-.418.159-.632.012-.061.017-.122.028-.183.031-.181.063-.36.081-.545.025-.248.038-.498.038-.749V230.641a7.501 7.501 0 0 0-7.501-7.5zM349.391 375l-69.394 69.394V375h69.394z"/><path d="M455.003 95.745c0-10.04-3.888-19.457-10.947-26.518l-28.284-28.284a37.414 37.414 0 0 0-8.845-6.565c-5.365-2.862-11.396-4.381-17.671-4.381-6.372 0-12.49 1.571-17.916 4.519a37.456 37.456 0 0 0-8.601 6.428l-35.356 35.355-26.352 26.353-204.34 204.34-.043.047c-.061.063-.117.13-.176.194a7.486 7.486 0 0 0-1.413 2.207l-28.866 70.103c-.013.032-.027.063-.039.096l-20.592 50.01a7.5 7.5 0 0 0 9.791 9.791l50.03-20.601.051-.021 70.127-28.875a7.506 7.506 0 0 0 2.205-1.412c.066-.06.133-.116.196-.178l.046-.042 204.337-204.337 61.71-61.711c7.06-7.061 10.948-16.478 10.948-26.518zM104.352 403.04L81.96 380.648l24.205-58.784a32.162 32.162 0 0 1 7.943 5.814c7.087 7.088 10.371 16.712 8.783 25.744a7.5 7.5 0 0 0 8.685 8.686c9.034-1.586 18.657 1.696 25.744 8.783a32.145 32.145 0 0 1 5.816 7.943l-58.784 24.206zm196.68-219.071c1.464 1.464 3.384 2.196 5.303 2.196s3.839-.732 5.303-2.196l30.052-30.053 24.748 24.749-191.146 191.148a47.327 47.327 0 0 0-7.365-9.528c-5.88-5.88-13.012-9.975-20.57-12.034l135.998-135.997a7.5 7.5 0 0 0-10.606-10.607l-136 135.997c-2.06-7.559-6.155-14.69-12.035-20.571a47.31 47.31 0 0 0-9.527-7.363l191.147-191.147 24.748 24.748-30.052 30.052a7.501 7.501 0 0 0 .002 10.606zm15.91-76.015l15.744-15.744 60.104 60.104-15.745 15.744-60.103-60.104zM75.773 395.675l13.553 13.553-23.04 9.487 9.487-23.04zM439.895 97.987a22.268 22.268 0 0 1-6.445 13.667l-30.052 30.053-60.104-60.104 30.053-30.053c.539-.539 1.1-1.043 1.677-1.516.25-.205.518-.382.776-.575.336-.251.666-.513 1.012-.743.372-.247.762-.462 1.147-.686.245-.143.483-.3.732-.433a22.356 22.356 0 0 1 1.673-.787c.094-.04.184-.09.278-.129a22.63 22.63 0 0 1 8.615-1.686c3.012 0 5.927.58 8.619 1.687.073.03.143.069.215.101.589.249 1.17.517 1.735.816.23.122.45.269.677.399.404.233.811.46 1.201.719.331.22.646.471.967.71.273.203.555.391.82.607.577.473 1.138.976 1.676 1.515l28.284 28.284a22.268 22.268 0 0 1 6.445 13.668 23.149 23.149 0 0 1-.001 4.486z"/></svg>