<svg viewBox="0 0 791 586" xmlns="http://www.w3.org/2000/svg"><style>.st0{fill:#43ccff}</style><path class="st0" d="M603.77 42.182c-12.728-20.827-37.026-33.555-64.795-33.555H90.035c-45.125 0-82.151 37.026-82.151 82.151v413.07c0 45.125 37.026 82.151 82.151 82.151h448.94c28.926 0 53.225-12.728 64.795-33.555l179.34-255.71z" fill="#43ccff" stroke-width="11.571"/><path d="M344.188 139.52c-79.37 0-143.942 64.573-143.942 143.942 0 26.817 7.428 52.987 21.486 75.692l114.259 184.134a11.995 11.995 0 0 0 10.191 5.67h.096a11.993 11.993 0 0 0 10.196-5.83L467.82 357.21c13.283-22.225 20.303-47.726 20.303-73.747 0-79.37-64.572-143.942-143.942-143.942zm103.055 205.374L346.01 513.922 242.133 346.517c-11.702-18.898-18.046-40.7-18.046-63.051 0-66.142 53.97-120.112 120.111-120.112s120.032 53.97 120.032 120.112c0 21.688-5.926 42.933-16.98 61.43z" fill-opacity="0"/><path d="M344.188 211.491c-39.685 0-71.971 32.286-71.971 71.971 0 39.432 31.76 71.972 71.971 71.972 40.706 0 71.971-32.974 71.971-71.972 0-39.685-32.286-71.97-71.97-71.97zm0 120.112c-26.595 0-48.14-21.618-48.14-48.14 0-26.457 21.683-48.141 48.14-48.141s48.06 21.684 48.06 48.14c0 26.136-21.044 48.141-48.06 48.141z" fill-opacity="0"/><path d="M312.926 90.432c-77.438 0-140.44 63.001-140.44 140.44 0 26.163 7.248 51.697 20.964 73.849l111.478 179.653a11.703 11.703 0 0 0 9.944 5.533h.093a11.7 11.7 0 0 0 9.948-5.69L433.55 302.825c12.96-21.684 19.809-46.564 19.809-71.952 0-77.438-63.002-140.44-140.44-140.44zm100.547 200.376l-98.768 164.915-101.35-163.331c-11.417-18.438-17.608-39.71-17.608-61.517 0-64.532 52.657-117.19 117.19-117.19s117.11 52.658 117.11 117.19c0 21.16-5.782 41.888-16.567 59.935z" fill="#fff" stroke="#fff" stroke-width=".78"/><path d="M312.926 160.652c-38.719 0-70.22 31.5-70.22 70.22 0 38.471 30.989 70.22 70.22 70.22 39.716 0 70.22-32.171 70.22-70.22 0-38.72-31.5-70.22-70.22-70.22zm0 117.189c-25.947 0-46.969-21.092-46.969-46.97 0-25.812 21.157-46.969 46.97-46.969s46.89 21.157 46.89 46.97c0 25.5-20.532 46.969-46.89 46.969z" fill="#fff" stroke="#fff" stroke-width=".78"/></svg>