<svg xmlns="http://www.w3.org/2000/svg" viewBox="0 0 512.002 512.002"><path d="M256 .001c-141.159 0-256 114.841-256 256s114.841 256 256 256c30.845 0 61.007-5.429 89.645-16.138 4.907-1.835 7.397-7.299 5.562-12.205-1.836-4.907-7.301-7.399-12.206-5.562-26.506 9.911-54.432 14.936-83.001 14.936-130.699 0-237.031-106.332-237.031-237.031S125.301 18.97 256 18.97c76.479 0 144.602 36.419 187.972 92.814-24.86 22.17-36.744 14.203-55.529 1.56-13.254-8.919-28.277-19.027-49.656-19.027-30.95 0-42.581 16.924-46.76 27.012-8.516 20.562-1.39 47.999 17.331 66.72 8.721 8.719 11.349 18.671 8.035 30.423-.878 3.113-2.078 5.956-3.302 8.394-12.159-9.483-29.407-17.218-53.733-18.762-2.075-20.522-11.072-39.543-25.865-54.315-16.949-16.925-39.466-26.241-63.416-26.241h-.133c-23.843.034-46.293 9.546-63.215 26.783-17.178 17.497-26.793 41.599-26.376 66.125.612 36.113 11.753 70.87 32.217 100.514a9.475 9.475 0 0 0 7.814 4.097 9.449 9.449 0 0 0 5.38-1.679c4.311-2.976 5.393-8.883 2.418-13.194-18.333-26.557-28.312-57.699-28.861-90.06-.33-19.477 7.304-38.618 20.946-52.514 13.333-13.581 30.987-21.076 49.706-21.102h.105c18.888 0 36.647 7.347 50.014 20.695 13.392 13.373 20.767 31.161 20.767 50.087 0 23.552-11.669 45.495-31.214 58.699a9.486 9.486 0 0 0 10.621 15.719c22.034-14.887 36.161-38.544 39.017-64.605 61.515 4.57 65.926 56.118 66.087 58.372a9.487 9.487 0 0 0 12.098 8.52c23.01-6.648 37.24-32.847 45.126-53.655 3.074-8.115 11-13.567 19.723-13.567a21.03 21.03 0 0 1 16.458 7.881 21.062 21.062 0 0 1 4.19 17.777c-.14.639-.283 1.276-.431 1.916-7.264 31.398-24.318 59.744-49.32 81.973l-4.781 4.25c-25.64 22.798-57.961 36.939-91.008 39.817-4.761.415-9.607.625-14.405.625-40.359 0-79.128-14.811-109.164-41.705-3.901-3.493-9.898-3.161-13.393.74-3.494 3.903-3.163 9.899.74 13.393 33.521 30.012 76.784 46.541 121.818 46.541 5.346 0 10.744-.234 16.049-.695 37.086-3.23 73.299-19.049 101.966-44.538l4.781-4.25c27.955-24.857 47.042-56.626 55.196-91.87.163-.707.323-1.416.481-2.135 2.609-11.928-.287-24.222-7.94-33.732-7.651-9.505-19.036-14.955-31.234-14.955-16.557 0-31.611 10.374-37.461 25.814-6.582 17.372-14.572 30.055-23.128 36.961-1.936-6.981-5.297-15.844-11.107-24.696a80.483 80.483 0 0 0-3.541-4.974c9.883-15.853 17.61-43.371-5.304-66.283-13.232-13.232-18.791-32.598-13.22-46.049 5.239-12.647 18.788-15.303 29.234-15.303 15.59 0 26.993 7.672 39.065 15.796 19.756 13.295 41.958 28.223 77.117-1.76 24.064 37.082 38.062 81.274 38.062 128.677 0 42.349-11.3 83.906-32.68 120.178-20.762 35.226-50.441 64.667-85.827 85.141a9.484 9.484 0 1 0 9.5 16.42c38.209-22.105 70.253-53.894 92.67-91.927 23.098-39.188 35.306-84.075 35.306-129.809C512 114.842 397.159.001 256 .001z"/><circle cx="193.396" cy="214.2" r="9.484"/></svg>