<svg viewBox="0 0 791 586" xmlns="http://www.w3.org/2000/svg"><style>.st0{fill:#43ccff}</style><path class="st0" d="M603.77 42.182c-12.728-20.827-37.026-33.555-64.795-33.555H90.035c-45.125 0-82.151 37.026-82.151 82.151v413.07c0 45.125 37.026 82.151 82.151 82.151h448.94c28.926 0 53.225-12.728 64.795-33.555l179.34-255.71z" fill="#43ccff" stroke-width="11.571"/><path d="M344.188 139.52c-79.37 0-143.942 64.573-143.942 143.942 0 26.817 7.428 52.987 21.486 75.692l114.259 184.134a11.995 11.995 0 0 0 10.191 5.67h.096a11.993 11.993 0 0 0 10.196-5.83L467.82 357.21c13.283-22.225 20.303-47.726 20.303-73.747 0-79.37-64.572-143.942-143.942-143.942zm103.055 205.374L346.01 513.922 242.133 346.517c-11.702-18.898-18.046-40.7-18.046-63.051 0-66.142 53.97-120.112 120.111-120.112s120.032 53.97 120.032 120.112c0 21.688-5.926 42.933-16.98 61.43z" fill-opacity="0"/><path d="M344.188 211.491c-39.685 0-71.971 32.286-71.971 71.971 0 39.432 31.76 71.972 71.971 71.972 40.706 0 71.971-32.974 71.971-71.972 0-39.685-32.286-71.97-71.97-71.97zm0 120.112c-26.595 0-48.14-21.618-48.14-48.14 0-26.457 21.683-48.141 48.14-48.141s48.06 21.684 48.06 48.14c0 26.136-21.044 48.141-48.06 48.141z" fill-opacity="0"/><g fill="#fff"><path d="M448.164 201.362h-51.82v-51.82c0-17.144-13.947-31.092-31.091-31.092H156.592c-17.144 0-31.092 13.948-31.092 31.092v291.572c0 17.144 13.948 31.092 31.092 31.092h291.572c17.144 0 31.092-13.948 31.092-31.092v-208.66c0-17.145-13.948-31.092-31.092-31.092zm-301.936-51.82c0-5.715 4.65-10.364 10.364-10.364h208.66c5.715 0 10.365 4.65 10.365 10.364v10.364h-229.39zm10.364 301.936c-5.715 0-10.364-4.649-10.364-10.364v-31.092h146.477v31.092c0 3.633.632 7.12 1.783 10.364zm136.113-219.025v156.842H146.228V180.634h229.389v20.728h-51.82c-17.144 0-31.092 13.947-31.092 31.091zm165.823 208.661c0 5.715-4.649 10.364-10.364 10.364H323.797c-5.715 0-10.364-4.649-10.364-10.364V430.75h145.095zm0-31.092H313.433V263.545h145.095zm0-167.205H313.433v-10.364c0-5.714 4.65-10.363 10.364-10.363h124.367c5.715 0 10.364 4.649 10.364 10.363z"/><path d="M260.231 201.362H177.32c-5.724 0-10.364 4.64-10.364 10.364v62.183c0 5.724 4.64 10.364 10.364 10.364h82.911c5.724 0 10.364-4.64 10.364-10.364v-62.183c0-5.724-4.64-10.364-10.364-10.364zm-10.364 62.183h-62.183V222.09h62.183zm-31.091 41.456H177.32c-5.724 0-10.364 4.64-10.364 10.364s4.64 10.364 10.364 10.364h41.456c5.723 0 10.364-4.64 10.364-10.364s-4.64-10.364-10.364-10.364zm208.66-20.728h-82.911c-5.724 0-10.364 4.64-10.364 10.364s4.64 10.364 10.364 10.364h82.911c5.724 0 10.364-4.64 10.364-10.364s-4.64-10.364-10.364-10.364zm-41.456 41.456h-41.455c-5.724 0-10.364 4.64-10.364 10.364s4.64 10.364 10.364 10.364h41.456c5.723 0 10.364-4.64 10.364-10.364s-4.64-10.364-10.364-10.364z"/></g></svg>