<svg xmlns="http://www.w3.org/2000/svg" viewBox="0 0 512 512"><path d="M467 120h-75V45c0-24.813-20.187-45-45-45H45C20.187 0 0 20.187 0 45v422c0 24.813 20.187 45 45 45h422c24.813 0 45-20.187 45-45V165c0-24.813-20.187-45-45-45zM30 45c0-8.271 6.729-15 15-15h302c8.271 0 15 6.729 15 15v15H30V45zm15 437c-8.271 0-15-6.729-15-15v-45h212v45a44.79 44.79 0 0 0 2.58 15H45zm197-317v227H30V90h332v30h-75c-24.813 0-45 20.187-45 45zm240 302c0 8.271-6.729 15-15 15H287c-8.271 0-15-6.729-15-15v-15h210v15zm0-45H272V210h210v212zm0-242H272v-15c0-8.271 6.729-15 15-15h180c8.271 0 15 6.729 15 15v15z"/><path d="M195 120H75c-8.284 0-15 6.716-15 15v90c0 8.284 6.716 15 15 15h120c8.284 0 15-6.716 15-15v-90c0-8.284-6.716-15-15-15zm-15 90H90v-60h90v60zm-45 60H75c-8.284 0-15 6.716-15 15s6.716 15 15 15h60c8.284 0 15-6.716 15-15s-6.716-15-15-15zm302-30H317c-8.284 0-15 6.716-15 15s6.716 15 15 15h120c8.284 0 15-6.716 15-15s-6.716-15-15-15zm-60 60h-60c-8.284 0-15 6.716-15 15s6.716 15 15 15h60c8.284 0 15-6.716 15-15s-6.716-15-15-15z"/></svg>