<svg viewBox="0 0 800 800" xmlns="http://www.w3.org/2000/svg"><style>.st0{fill:#edf1f7}</style><path class="st0" d="M399.56 44.91c3.264 0 9.387.816 14.285 6.122l334.683 334.683c7.754 7.755 7.754 20.815 0 28.978L413.845 749.376c-5.306 5.306-11.429 6.123-14.286 6.123-3.265 0-9.387-.817-14.285-6.123L50.591 414.693c-7.755-7.754-7.755-20.815 0-28.978L385.274 51.032c4.898-5.306 11.02-6.122 14.285-6.122m0-40.815c-15.51 0-31.427 6.122-43.264 17.958L21.612 356.736c-24.08 24.081-24.08 62.855 0 86.528l334.683 334.683c11.837 11.836 27.755 17.959 43.264 17.959s31.428-6.123 43.264-17.96l334.683-334.682c24.081-24.08 24.081-62.855 0-86.528L442.823 22.053C430.58 9.81 415.07 4.095 399.56 4.095z" fill="#edf1f7"/><g id="mihNYO.tif" fill="#43ccff"><path d="M144 150c2.3-4.1 5.8-5.3 10.4-5.3 33.1.1 66.3.1 99.4.1 8.2 0 10.4 2.2 10.4 10.4v99.4c0 8.1-2.3 10.4-10.3 10.4-33 0-66-.1-98.9.1-4.8 0-8.4-1.1-11-5.1V150zm94.6 99.8c-11.4-11.4-22.1-22-32.8-32.6-1.9-1.9-2.9-.4-4 .7-5.4 5.4-10.8 10.9-16.3 16.2-5.1 4.9-10.3 9.8-15.4 14.6.3.4.5.7.8 1.1h67.7zm10.2-10.6V171c-11.2 11.2-21.8 21.7-32.4 32.2-1.5 1.5-1 2.4.2 3.6 10.5 10.5 20.9 21 32.2 32.4zm-89.4-68.5v68.4c8.7-8.7 16.8-16.8 24.8-24.9 3-3.1 8.3-5.7 8.1-9.4-.2-3.1-5.1-6.1-8-9-8-8.2-16.2-16.4-24.9-25.1zm78.8-10.4h-68c11 11.1 21.5 21.5 31.9 32 1.5 1.5 2.4 1.6 4 0 10.5-10.5 21-20.9 32.1-32zM656 260c-2.5 3.9-6 5.1-10.6 5.1-33.3-.1-66.6-.1-99.9-.1-7.1 0-9.7-2.5-9.7-9.5-.1-10.7-.1-21.3 0-32 0-5.9 3-9.3 7.5-9.2 4.4.1 7.2 3.5 7.4 9 .1 2.5 0 5 0 7.5v6.9c1.8.9 2.3-.6 3-1.3 9.7-9.6 19.3-19.3 29-28.9 1.6-1.6 2.5-2.7.3-4.7-10.2-10-20.3-20.2-30.5-30.3-.3-.3-.8-.4-1.9-1.1 0 5.8.2 11-.1 16.3-.3 5.7-4.4 9-9.1 7.8-3.5-.9-5.6-3.1-5.6-6.7-.1-12.2-.2-24.3 0-36.5.1-4.8 3-7.2 8.3-7.3 8-.1 16-.1 24-.1 25.8 0 51.6.1 77.5-.1 4.6 0 8.1 1.2 10.4 5.3V260zm-25.9-10.2c-11.3-11.3-21.8-21.7-32.1-32.3-2.2-2.2-3.2-1-4.8.6-9.6 9.7-19.3 19.3-28.9 29-.7.7-2.1 1.2-1.5 2.7h67.3zm10.7-79.2c-11.4 11.3-21.9 22-32.6 32.5-2.5 2.5-.2 3.5 1.1 4.7 9.5 9.6 19.1 19.1 28.6 28.6.7.7 1.2 2.1 2.9 1.7v-67.5zm-11.1-10.3h-68c11.1 11.1 21.7 21.6 32.1 32.1 1.6 1.6 2.5 1.4 4-.1 10.4-10.5 20.9-21 31.9-32zM383 325c8.4-4.3 16.5-5.3 24.8-3.2 12.4 3.1 20.1 11.2 23 23.7.4 1.8.2 3.9 3.1 2.4 18.4-9.6 43.7 3.2 44.3 28 0 .2.1.3.3.7 4.4-1 8.8-2.7 13.6-2.1 15.2 1.7 24.8 12.5 24.9 28.1.1 22.7.1 45.3.1 68 0 38.2 0 76.3-.1 114.5 0 3.8.4 5.6 4.9 5.5 6.8-.2 9.3 2.6 9.3 9.4.1 15.3.1 30.7 0 46 0 6.8-2.5 9.3-9.4 9.3-10.8.1-21.7.1-32.5 0-6.3 0-9.6-2.7-9.5-7.7.1-4.8 3.5-7.3 9.9-7.3 7.2 0 14.3-.2 21.5.1 3.8.1 5.3-.8 5.1-4.9-.3-8-.4-16 0-24 .2-4.7-1-6.2-6-6.1-45.7.2-91.3.2-137 .2-3.3 0-6.7.2-10-.1-3.4-.3-4.7.8-4.6 4.4.2 8.7.3 17.3 0 26-.2 4 1.4 4.6 4.9 4.6 29-.1 58-.1 87-.1 1.8 0 3.7-.2 5.4.6 3.3 1.4 5.1 3.8 4.8 7.4-.3 3.7-2.4 6.2-6.1 6.8-1.5.3-3 .2-4.5.2h-95.5c-8.8 0-10.9-2.1-10.9-10.8v-43.5c0-7.8 1.7-9.9 9.4-10.4 3.1-.2 3.5-1.3 3.1-4-1.1-7.4-5-13.3-9.5-18.9-6.9-8.7-15.9-15.1-24.3-22.2-28.6-23.9-42-54.7-42.4-91.5-.1-6.3-.5-12.7.5-19 2.2-14.3 12.6-24.5 27-25.8 3.7-.3 4.5-1.7 4.5-5.3-.1-22.5-.1-45 0-67.5 0-1.7-.1-3.4.2-5 .8-4.1 3.3-6.5 7.7-6.4 4.1.2 6.3 2.6 7 6.5.3 1.5.1 3 .1 4.5v126c-.3 4.8-3.1 7.9-7.2 8.1-4.3.2-7.4-3.1-7.8-8.1-.1-1.3 0-2.7 0-4 0-10.2-.1-20.3.1-30.5.1-3.2-.8-4.1-4-3.6-6.8 1.1-12.4 6.5-12.8 14-1.7 29 2.5 56.5 21.2 80.2 6.9 8.7 15.3 15.7 24 22.5 7.8 6.1 14.8 13 20.6 20.9 5.5 7.5 9.7 15.6 10.3 25 .2 2.9 1.1 4 4.2 4 40.8-.1 81.7-.1 122.5 0 2.9 0 4-.7 4-3.9-.1-61.3 0-122.7-.1-184 0-6.4-3.2-10.9-8.1-12.5-5.7-1.8-10-.3-14.1 5.4-2.7 3.8-6.1 4.9-10.4 3.5-4.3-1.3-6.1-4.3-6.1-8.6 0-5 .1-10-.1-15-.3-8.5-6.5-15-14.7-15.4-8.5-.4-15.1 5-16.4 13.5-.1.8-.2 1.7-.3 2.5-1 4.7-4.2 7.6-8.2 7-4.4-.7-6.6-3.5-6.7-8-.1-7.3.1-14.7-.1-22-.3-11.2-7.2-17.5-18.3-17-7.7.4-13.8 5.7-15.1 13.4-.2 1.3-.2 2.7-.5 4-1 3.6-3.4 5.7-7.3 5.7-3.8 0-6.2-2.3-7.1-5.9-.4-1.7-.3-3.6-.3-5.5v-93c0-11.9-7.3-20.7-17.8-21.7-12.8-1.3-22.9 7.4-23.1 20.4-.2 13.2 0 26.3 0 39.5v4c-.1 5.7-3.1 9.2-7.7 9.1-4.4-.1-7.3-3.4-7.3-8.9-.1-9.5-.2-19 0-28.5.1-3.1-.8-4.7-3.6-6.1-6-3.1-9.4-8.5-9.5-15.4-.1-28-.2-56 0-84 .1-10.6 7.7-18.1 18.5-18.2 16.8-.2 33.7-.1 50.5-.1h111c15.5 0 22.1 6.7 22.1 22.3v77c0 13.7-7.2 20.9-20.9 21-30.7 0-61.3.1-92-.1-4.1 0-5.3 1-5.2 5.2-.2 17.8-.3 35.8-.3 54.7zm-69.1-86l.9.3c.4-.7.8-1.3 1.2-2 7.2-14.1 21.5-21.4 37.3-19.2 14 2 26 13.5 28.8 28.1.6 3.2 2 3.9 5 3.8 30.8-.1 61.6-.1 92.5-.1 6.1 0 6.5-.4 6.5-6.6v-77c0-6.4-.3-6.7-6.9-6.7H319.7c-3.4 0-5.9.5-5.9 4.8.2 25 .1 49.8.1 74.6zM603 297.6c-1.4 6.9-4.5 14.1-8.1 21-13.6 26.4-34.1 45.7-61 58.2-.9.4-1.8.9-2.7 1.2-4 1.2-7.3.4-9.4-3.4-2-3.6-.9-7.5 3.1-9.8 4.1-2.5 8.6-4.4 12.8-6.8 24.2-14.2 40.9-34.6 50.1-61.2.4-1.3.8-2.6 1.4-3.7 1.9-3.3 4.8-4.6 8.4-3.7 3.3.6 5.4 3.7 5.4 8.2zM204.8 289c4 .1 6 3.1 7.2 7 4.6 15.2 12.8 28.5 23.3 40.3 9.5 10.7 21 18.9 33.7 25.3 1.6.8 3.3 1.5 4.9 2.4 4.6 2.6 6.1 6.3 4.2 10.3-1.9 3.9-5.9 5.3-10.6 3.1-24.3-11-43.8-27.5-57.8-50.4-5.2-8.6-9.5-17.6-12.3-27.2-1.6-5.9 1.4-10.6 7.4-10.8z" transform="translate(178.05 165.88) scale(.55364)"/><path d="M379.3 621.4c-.1 5.8-2.8 9.3-7.3 9.4-4.7.1-7.7-3.7-7.7-9.7s2.9-9.7 7.7-9.6c4.7.2 7.3 3.6 7.3 9.9zm8.6-387.3c-2.2.2-4.2-1.1-5.8-2.8-7-6.9-14-13.8-20.8-20.9-3.9-4-4.1-8.2-.8-11.5 3.1-3.1 7.5-2.8 11.5 1 4.4 4.3 8.9 8.6 13 13.1 2.3 2.6 3.7 2.6 6.2.1 11.6-11.9 23.5-23.6 35.3-35.4 1.2-1.2 2.3-2.4 3.7-3.4 3.3-2.3 6.7-2.1 9.5.7 2.7 2.6 3.1 5.8 1 9.1-.8 1.2-1.8 2.4-2.9 3.4l-42.4 42.4c-2 2.1-4.1 4.1-7.5 4.2z" transform="translate(178.05 165.88) scale(.55364)"/></g></svg>