<svg viewBox="0 0 800 800" xmlns="http://www.w3.org/2000/svg"><style>.st0{fill:#edf1f7}</style><path class="st0" d="M399.56 44.91c3.264 0 9.387.816 14.285 6.122l334.683 334.683c7.754 7.755 7.754 20.815 0 28.978L413.845 749.376c-5.306 5.306-11.429 6.123-14.286 6.123-3.265 0-9.387-.817-14.285-6.123L50.591 414.693c-7.755-7.754-7.755-20.815 0-28.978L385.274 51.032c4.898-5.306 11.02-6.122 14.285-6.122m0-40.815c-15.51 0-31.427 6.122-43.264 17.958L21.612 356.736c-24.08 24.081-24.08 62.855 0 86.528l334.683 334.683c11.837 11.836 27.755 17.959 43.264 17.959s31.428-6.123 43.264-17.96l334.683-334.682c24.081-24.08 24.081-62.855 0-86.528L442.823 22.053C430.58 9.81 415.07 4.095 399.56 4.095z" fill="#edf1f7"/><g fill="#43ccff" stroke="#43ccff" stroke-width=".592"><path d="M459.374 286.826a4.502 4.502 0 0 0 6.368 0l17.178-17.178a4.502 4.502 0 0 0 0-6.369l-28.229-28.23a4.502 4.502 0 0 0-6.368 0l-36.138 36.137-8.578-8.578a4.502 4.502 0 0 0-6.368 0l-53.008 53.007a4.502 4.502 0 0 0 0 6.369 25.91 25.91 0 0 1 3.234 3.943l-19.408-2.432a4.504 4.504 0 0 0-3.745 1.285l-13.442 13.442a4.503 4.503 0 0 0 3.184 7.688h16.415l16.9 8.428a25.369 25.369 0 0 1-1.462 1.957 16.947 16.947 0 0 0-1.881-2.204 16.62 16.62 0 0 0-11.983-4.797c-8.86.142-16.074 7.189-16.423 16.043l-1.726 43.79c-.651 16.537 4.035 33.006 13.24 46.72l-13.706 21.67a4.504 4.504 0 0 0 7.612 4.815l15.307-24.205a4.503 4.503 0 0 0-.17-5.064c-9.179-12.56-13.896-28.037-13.284-43.581l1.726-43.79a7.7 7.7 0 0 1 7.567-7.393 7.683 7.683 0 0 1 5.521 2.21 7.639 7.639 0 0 1 2.298 5.485v24.17c0 8.28 4.753 15.393 12.402 18.561 7.651 3.169 16.04 1.5 21.895-4.355l57.36-57.36c2.974-2.972 7.81-2.972 10.783.001 2.974 2.974 2.974 7.811 0 10.785l-47.268 47.268a4.502 4.502 0 1 0 6.368 6.369l24.956-24.956c2.974-2.973 7.811-2.973 10.785 0 2.973 2.974 2.973 7.811 0 10.785l-22.164 22.165a4.502 4.502 0 1 0 6.369 6.368l19.547-19.547c2.973-2.972 7.81-2.973 10.784 0 2.973 2.974 2.973 7.811 0 10.785l-23.137 23.137a4.502 4.502 0 1 0 6.369 6.368l11.367-11.367.002-.001c1.44-1.44 3.355-2.234 5.392-2.234s3.952.793 5.391 2.234c2.973 2.973 2.973 7.81 0 10.784l-32.258 32.259c-11.525 11.525-26.801 18.806-43.012 20.499-1.348.14-2.56.88-3.302 2.014l-19.133 29.26a4.504 4.504 0 0 0 7.539 4.93l17.982-27.5c17.455-2.306 33.824-10.364 46.295-22.835l32.258-32.259c6.485-6.485 6.485-17.037 0-23.522a16.547 16.547 0 0 0-6.699-4.086l1.313-1.313c6.485-6.485 6.485-17.037 0-23.522a16.55 16.55 0 0 0-9.98-4.765 16.71 16.71 0 0 0 .315-3.243c0-4.443-1.73-8.62-4.871-11.761a16.553 16.553 0 0 0-6.698-4.087l11.858-11.857c6.485-6.485 6.485-17.037 0-23.522a16.522 16.522 0 0 0-6.707-4.079l14.545-14.545a4.5 4.5 0 0 0 0-6.368l-9.869-9.87 6.95-6.95a4.502 4.502 0 1 0-6.368-6.368l-6.95 6.95-3.452-3.451 32.954-32.953 3.451 3.451-13.994 13.996a4.505 4.505 0 0 0 .001 6.369zm-125.833 50.552a4.501 4.501 0 0 0-2.01-.474h-6.603l4.197-4.197 22.184 2.78c.268 1.495.413 3.024.413 4.576a25.78 25.78 0 0 1-.714 6.026zm113.562-18.54l-79.165 79.165c-3.861 3.861-8.772 3.772-12.08 2.402-3.308-1.37-6.843-4.78-6.843-10.24v-24.17c0-.154-.007-.306-.01-.459a4.485 4.485 0 0 0 1.598-1.028c6.53-6.53 10.126-15.211 10.126-24.447 0-7.716-2.51-15.047-7.146-21.059l46.844-46.843zm-16.505-29.242l-12.042-12.041L451.51 244.6l12.041 12.042z"/><path d="M435.536 314.026l-30.919-30.92a4.502 4.502 0 0 0-6.368 0l-36.296 36.297a4.502 4.502 0 0 0 0 6.368l30.919 30.92a4.503 4.503 0 0 0 6.368 0l36.296-36.297a4.5 4.5 0 0 0 0-6.368zm-39.48 33.11l-3.67-3.67 13.166-13.165a4.502 4.502 0 1 0-6.368-6.369l-13.166 13.166-6.236-6.235 13.166-13.166a4.502 4.502 0 1 0-6.368-6.368l-13.166 13.165-1.908-1.907 29.927-29.927 24.551 24.55zm-84.02 141.008a4.504 4.504 0 0 0-6.213 1.4l-25.616 40.501a4.503 4.503 0 0 0 7.612 4.815l25.615-40.502a4.502 4.502 0 0 0-1.398-6.214z"/></g></svg>