<svg viewBox="0 0 800 800" xmlns="http://www.w3.org/2000/svg"><style>.st0{fill:#edf1f7}</style><path class="st0" d="M399.56 44.91c3.264 0 9.387.816 14.285 6.122l334.683 334.683c7.754 7.755 7.754 20.815 0 28.978L413.845 749.376c-5.306 5.306-11.429 6.123-14.286 6.123-3.265 0-9.387-.817-14.285-6.123L50.591 414.693c-7.755-7.754-7.755-20.815 0-28.978L385.274 51.032c4.898-5.306 11.02-6.122 14.285-6.122m0-40.815c-15.51 0-31.427 6.122-43.264 17.958L21.612 356.736c-24.08 24.081-24.08 62.855 0 86.528l334.683 334.683c11.837 11.836 27.755 17.959 43.264 17.959s31.428-6.123 43.264-17.96l334.683-334.682c24.081-24.08 24.081-62.855 0-86.528L442.823 22.053C430.58 9.81 415.07 4.095 399.56 4.095z" fill="#edf1f7"/><g id="dBFg7V.tif" fill="#43ccff"><path d="M145 252c2.8-3.9 6.8-4.7 11.3-4.7 59.8.1 119.7 0 179.5.1 1.8 0 3.7.1 5.5.4 4 .8 6 3.5 5.8 7.5-.2 3.8-2.3 6.2-6.1 6.8-2 .3-4 .3-6 .3H166.5c-7.7 0-6.4-.7-6.5 6.7-.1 4.8.2 9.7 0 14.5-.1 2.9.9 3.7 3.7 3.7 10.5-.1 21 0 31.5 0 8.8 0 11 2.2 11 10.9 0 7 .2 14 0 21-.1 3.1 1 4.1 4 3.9s6-.3 9 0c3.6.4 5-.6 4.8-4.6-.3-7.1-.1-14.3-.1-21.5.1-6.8 2.5-9.6 9.2-9.7 10-.2 20-.2 30 0 6.4.1 8.9 2.9 9 9.4.1 7.5.2 15-.1 22.5-.1 3.2 1 4.1 4 3.9 3.2-.2 6.4-.3 9.5 0 3.7.4 4.4-1.3 4.3-4.6-.2-7.2-.1-14.3 0-21.5.1-7.1 2.6-9.6 9.7-9.7 10.5-.1 21-.1 31.5-.1h106c8.7 0 10.2 1.3 12.2 9.8 10.4 44.1 49.8 75.4 95 75.5 42.3.1 79.6-27.2 93.2-68.1 12.9-38.9-1.2-82.9-34.7-107.8-56.7-42.3-137.9-12.4-153.6 56.6-1.7 7.7-3.4 9.1-11.2 9.1h-65c-1.5 0-3 0-4.5-.3-3.9-.7-5.8-3.4-5.9-7-.1-3.5 1.7-6.2 5.2-7.1 2.1-.5 4.3-.6 6.4-.6 18.2 0 36.3-.2 54.5.1 4.7.1 6.8-1.2 8.3-6 13.8-46.7 59-79.9 107.7-79.4 52.3.5 96.7 35.8 109.3 86.8 1.3 5.3 2.1 10.7 3.1 16.1v20c-2.2 10.2-3.5 20.6-7.6 30.4-16.6 39.5-45.6 63.9-88 70.6-54.2 8.5-103.9-21.6-123.1-72.9-.1-.3-.2-.6-.3-1-3.5-9.8-3.5-9.8-13.7-9.8-38 0-76 .1-114-.1-4.4 0-5.8 1.1-5.5 5.5.4 7 .2 14 .1 21-.1 6.7-2.8 9.3-9.5 9.3-9.7.1-19.3.1-29 0-6.3-.1-9-2.8-9.1-9.2-.1-7.5-.1-15 0-22.5.1-2.9-.7-4.3-3.9-4.1-3.6.2-7.3.2-11 0-2.7-.1-3.4 1-3.4 3.5.1 7.5.1 15 0 22.5-.1 7.1-2.6 9.7-9.6 9.8-9.5.1-19 .1-28.5 0-6.9 0-9.5-2.7-9.6-9.8-.1-7-.2-14 .1-21 .1-3.8-.9-5.2-4.9-5.1-10.3.3-20.7 0-31 .2-4.6.1-8.1-1.2-10.4-5.4-.1-14.8-.1-29.8-.1-44.8zm512 255c-3.1 11.9-11.4 18.7-21.9 24.3-35.1 18.7-69.9 37.9-104.9 56.9-1.5.8-3 1.5-4.5 2.1-3.9 1.5-6.9.1-8.8-3.3-1.9-3.6-1.1-6.8 2-9.3 1.4-1.1 3.1-2 4.7-2.9 36.1-19.7 72.2-39.3 108.3-59 2.8-1.5 5.6-3 7.5-5.7 3.3-4.6 3.4-10.8.2-15.5-3.3-4.8-9.3-7.1-14.9-5.4-2.4.7-4.6 1.9-6.8 3.1-26.5 14.4-52.1 30.3-79.4 43.2-44.2 20.8-90.8 27.5-139.3 20.9-15.2-2.1-30.4-3.6-45.6-5.5-1.3-.2-2.6-.3-3.9-.6-3.9-.8-6.3-3.3-6.2-7.3 0-3.9 2.2-6.7 6.2-7.3 9.1-1.3 18.1-2.5 27.2-3.6l98.1-12.3c7.5-.9 12-4.9 13-11.1.9-6-1.8-11.1-7.4-13.9-2.7-1.3-5.5-1.1-8.3-1.1-30.8 0-61.7-.1-92.5 0-3.9 0-7.5-.7-11.2-2-26.6-9.5-53.8-11.8-81.6-6-.8.2-1.6.3-2.5.4-5.4 1-9.1-1.1-10.1-5.5-.9-4.2 1.5-7.6 6.6-8.9 7.7-2.1 15.7-3.2 23.6-3.7 22.7-1.5 44.9.9 66.4 8.7 2.8 1 5 .6 7.5-.8 30.3-16 60.7-31.9 91.1-47.8 14.6-7.6 30.3-3.1 37.4 10.4.8 1.6 1.5 3.4 2 5.1s.9 3.5 1.4 5.7c4.2-2.2 8.1-4.4 12.1-6.4 16.9-8.6 33.8-1 38.3 17.4.6 2.5 1.2 3 3.5 1.8 4.5-2.5 9.1-4.9 13.7-7.2 17-8.6 33.6-1.2 38.6 17.1.5 1.9.7 3.6 3.4 2.7 14.7-5 32.5 4 36.3 21.4.1.6.5 1.2.7 1.7v9.2zm-240 35.3c-.1.2-.2.3-.2.5 3.3.3 6.6.5 9.9.8 1.3.1 2.7.2 4 .2 39 .1 76-8.1 110.5-26.4 18.1-9.6 35.9-19.7 53.8-29.6 1.3-.7 2.5-1.6 3.6-2.6 3.6-3.3 4.5-8.3 2.3-12.7s-6.7-6.8-11.6-5.7c-2.1.5-4.1 1.4-6 2.4-25.5 13.4-50.9 26.8-76.5 40.1-2.6 1.3-3.9 3.1-4.8 5.8-3.6 10.7-11 17.4-22.3 19-20.8 3-41.8 5.5-62.7 8.2zm-9-64.8c.1.4.1.8.2 1.2H422c11.5 0 23.5 2 34.3-.7s20.4-10.3 30.5-15.7c.1-.1.3-.1.4-.2 7.2-4 9.8-10.5 6.5-16.5-3.3-6.1-10-7.7-17.3-3.9-8.4 4.3-16.8 8.8-25.2 13.2-14.4 7.5-28.8 15.1-43.2 22.6zm77.2 2.8c6.9 3.1 11.8 7.1 14.8 12.9 1.1 2.2 2.4 1.6 4 .8 11.9-6.3 23.9-12.5 35.7-18.9 6.4-3.5 8.3-9.5 5.3-15.1-2.9-5.4-9.2-6.9-15.6-3.6-9.7 5.1-19.3 10.4-29 15.6-4.8 2.6-9.6 5.3-15.2 8.3z" transform="translate(174.98 154.89) scale(.55538)"/><path d="M145 515c2.5-3.9 6-5.2 10.5-5.1 14.8.2 29.7 0 44.5.1 2.8 0 5.1-.6 7.3-2.3 12.4-9.4 25.8-17.1 39.8-23.8 5.3-2.5 9.6-1.6 11.7 2.5s.4 8.2-4.9 10.8c-14.6 7-28.4 15.3-41.2 25.3-2.5 1.9-5.3 2.6-8.4 2.6-13.3-.1-26.7.1-40-.1-3.5-.1-4.4 1-4.4 4.4.1 25.2.2 50.3 0 75.5 0 3.6 1.1 4.5 4.5 4.3 42.4-1.7 84.5 3.9 126.6 7.5 27.4 2.4 54.8 4.6 82.1 7.3 28.5 2.8 55.2-3.6 81.3-14.3 11.6-4.7 22.8-10.1 33.9-15.9 1.5-.8 2.9-1.6 4.5-2.2 4.5-1.8 8.4-.6 10.3 3.1s.7 7.8-3.6 10.1c-8.5 4.5-17.2 8.9-25.9 12.9-21.3 9.7-43.1 17.6-66.5 20.6-12.6 1.7-25.2 1.4-37.9.3-36.7-3.3-73.4-6.1-110-9.9-34.8-3.6-69.7-5.6-104.7-4.7-4.4.1-7.3-1.7-9.5-5.1V515zm399.4-313.4c40.5.2 73.7 33.5 73.3 73.6-.4 40.5-33.5 73.3-73.9 73-40.6-.3-73.1-33.3-72.9-73.8.3-40.3 33.3-73 73.5-72.8zm-.4 131.6c32.2.1 58.7-26.1 58.7-58.3 0-32-26.1-58.1-58.2-58.3-32-.3-58.4 25.8-58.6 57.8-.1 32.4 25.8 58.6 58.1 58.8z" transform="translate(174.98 154.89) scale(.55538)"/></g></svg>