<svg viewBox="0 0 800 800" xmlns="http://www.w3.org/2000/svg"><style>.st0{fill:#edf1f7}</style><path class="st0" d="M399.56 44.91c3.264 0 9.387.816 14.285 6.122l334.683 334.683c7.754 7.755 7.754 20.815 0 28.978L413.845 749.376c-5.306 5.306-11.429 6.123-14.286 6.123-3.265 0-9.387-.817-14.285-6.123L50.591 414.693c-7.755-7.754-7.755-20.815 0-28.978L385.274 51.032c4.898-5.306 11.02-6.122 14.285-6.122m0-40.815c-15.51 0-31.427 6.122-43.264 17.958L21.612 356.736c-24.08 24.081-24.08 62.855 0 86.528l334.683 334.683c11.837 11.836 27.755 17.959 43.264 17.959s31.428-6.123 43.264-17.96l334.683-334.682c24.081-24.08 24.081-62.855 0-86.528L442.823 22.053C430.58 9.81 415.07 4.095 399.56 4.095z" fill="#edf1f7"/><path d="M538.816 406.61h-4.72V364.1c0-6.73-3.35-12.689-8.465-16.31v-5.788c0-8.396-6.83-15.226-15.226-15.226h-3.524l13.483-19.785c4.519-6.631 2.8-15.704-3.831-20.224l-91.489-62.347a14.45 14.45 0 0 0-10.905-2.273 14.459 14.459 0 0 0-9.318 6.104l-78.966 115.874H303.88l5.302-53.668c.06-.605.452-1.13 1-1.336a34.163 34.163 0 0 0 16.668-13.541 1.58 1.58 0 0 1 1.493-.701l34.466 3.405a4.493 4.493 0 1 0 .883-8.944l-34.466-3.405c-4-.392-7.816 1.452-9.96 4.82a25.116 25.116 0 0 1-12.254 9.956c-3.78 1.425-6.375 4.82-6.775 8.862l-5.388 54.552h-5.73l8.384-84.88c.302-3.055 3.029-5.3 6.088-4.993l69.646 6.88a4.493 4.493 0 1 0 .883-8.944l-69.646-6.88c-7.985-.788-15.126 5.067-15.915 13.054l-6.759 68.414h-11.509c-8.395 0-15.226 6.83-15.226 15.227v3.948c-6.869 3.162-11.651 10.106-11.651 18.15V517.29c0 11.013 8.96 19.973 19.974 19.973h250.738c11.014 0 19.974-8.96 19.974-19.973v-42.51h4.719c5.57 0 10.102-4.532 10.102-10.102v-47.962c.001-5.57-4.531-10.102-10.102-10.102zm-28.411-70.847a6.245 6.245 0 0 1 6.239 6.239v2.29a20.026 20.026 0 0 0-2.52-.165h-19.068l5.7-8.364zm-98.16-102.453a5.534 5.534 0 0 1 3.565-2.335 5.53 5.53 0 0 1 4.171.87l91.489 62.346a5.574 5.574 0 0 1 1.466 7.736l-28.757 42.197h-6.901l14.099-20.688c2.286-3.355 2.474-7.625.49-11.144a25.115 25.115 0 0 1-3.011-15.501c.517-3.959-1.224-7.824-4.546-10.087l-47.427-32.32c-3.322-2.264-7.556-2.471-11.051-.542a25.12 25.12 0 0 1-15.527 2.868c-3.943-.554-7.94 1.227-10.193 4.531l-56.483 82.884h-6.902zm1.98 76.311c-19.57 0-35.634 15.26-36.943 34.503h-22.778l53.034-77.82a1.605 1.605 0 0 1 1.314-.707c.068 0 .137.005.205.014a34.167 34.167 0 0 0 21.118-3.9c.503-.278 1.149-.238 1.646.101l47.429 32.321c.496.34.769.926.695 1.495a34.156 34.156 0 0 0 4.095 21.081c.287.51.252 1.165-.089 1.667l-17.547 25.75h-15.235c-1.31-19.244-17.374-34.503-36.945-34.503zm27.932 34.504h-55.864c1.287-14.284 13.32-25.516 27.931-25.516 14.614 0 26.646 11.232 27.933 25.516zM264.052 342a6.247 6.247 0 0 1 6.24-6.24h10.62l-.825 8.364h-16.035zm-11.65 22.097c0-6.057 4.928-10.985 10.986-10.985h250.738c6.058 0 10.986 4.928 10.986 10.985v12.47h-272.71zm272.71 153.19c0 6.057-4.928 10.985-10.986 10.985H263.387c-6.058 0-10.986-4.928-10.986-10.985v-12.47h24.233a4.493 4.493 0 1 0 0-8.987H252.4V385.555h272.71v21.053h-42.727c-13.463 0-25.124 7.848-30.659 19.207-.018.038-.04.075-.058.113-.047.097-.088.197-.133.294-.66 1.4-1.232 2.85-1.698 4.345l-.004.013a33.97 33.97 0 0 0-1.531 10.111c0 18.794 15.289 34.083 34.082 34.083h42.727v21.054h-219.7a4.493 4.493 0 1 0 0 8.987h219.7zm14.822-52.613c0 .615-.5 1.115-1.116 1.115h-56.433c-9.513 0-17.808-5.321-22.062-13.143a24.767 24.767 0 0 1-1.508-3.332 24.973 24.973 0 0 1-1.525-8.62 24.989 24.989 0 0 1 3.033-11.952c4.254-7.822 12.549-13.144 22.062-13.144h56.433c.615 0 1.116.5 1.116 1.115z" fill="#43ccff" stroke="#43ccff" stroke-width=".616"/></svg>