<svg xmlns="http://www.w3.org/2000/svg" viewBox="0 0 512 512"><path d="M149.747 431.062a8.806 8.806 0 0 0-8.807 8.807c0 14.038-11.42 25.457-25.458 25.457-14.037 0-25.457-11.42-25.457-25.457s11.42-25.457 25.457-25.457c6.801 0 13.195 2.649 18.003 7.458a8.806 8.806 0 0 0 12.455-12.453c-8.135-8.137-18.952-12.618-30.458-12.618-23.75 0-43.07 19.322-43.07 43.07s19.321 43.07 43.07 43.07c23.75 0 43.071-19.322 43.071-43.07a8.805 8.805 0 0 0-8.806-8.807zm216.498-34.263c-23.75 0-43.071 19.322-43.071 43.07 0 23.75 19.322 43.07 43.071 43.07s43.07-19.322 43.07-43.07c0-23.749-19.32-43.07-43.07-43.07zm0 68.527c-14.038 0-25.458-11.42-25.458-25.457s11.42-25.457 25.458-25.457c14.037 0 25.457 11.42 25.457 25.457 0 14.038-11.42 25.457-25.457 25.457z"/><path d="M459.838 129.164h-18.705c-17.017 0-30.861 13.844-30.861 30.86v17.283H254.409l61.043-165.452A8.803 8.803 0 0 0 307.19 0h-65.418c-49.713 0-96.45 19.359-131.602 54.512a8.806 8.806 0 1 0 12.455 12.454c29.739-29.741 68.641-46.991 110.34-49.123v168.271l.001.05.001.066c.063 22.284 18.21 40.394 40.508 40.394h79.545c4.865 0 8.807-3.943 8.807-8.807s-3.942-8.807-8.807-8.807h-79.545c-9.505 0-17.673-5.824-21.131-14.091h157.7a168.433 168.433 0 0 1-1.335 14.091h-26.333c-4.865 0-8.807 3.943-8.807 8.807s3.942 8.807 8.807 8.807h22.966c-18.186 73.407-84.621 127.99-163.571 127.99-89.957 0-163.674-70.859-168.271-159.694h134.513a8.806 8.806 0 0 0 8.807-8.807 8.806 8.806 0 0 0-8.807-8.807H73.527c1.578-30.607 11.338-59.967 28.518-85.397a8.806 8.806 0 0 0-2.368-12.227 8.806 8.806 0 0 0-12.227 2.367c-20.797 30.783-31.791 66.768-31.791 104.064 0 62.229 30.703 117.416 77.753 151.225l-22.5 30.562c-37.649 2.367-67.559 33.734-67.559 71.97 0 39.773 32.358 72.13 72.13 72.13 36.791 0 67.213-27.693 71.573-63.323h107.615c4.36 35.632 34.784 63.323 71.573 63.323 39.772 0 72.13-32.358 72.13-72.13 0-38.318-30.039-69.742-67.802-71.989L347.47 339.21c48.548-33.621 80.415-89.703 80.415-153.097v-26.09c0-7.305 5.944-13.246 13.248-13.246h18.705a8.806 8.806 0 0 0 8.807-8.807 8.805 8.805 0 0 0-8.807-8.806zm-209.259 7.638V17.613h43.974l-43.974 119.189zM115.483 494.387c-30.061 0-54.517-24.457-54.517-54.517 0-30.061 24.455-54.517 54.517-54.517 30.061 0 54.518 24.457 54.518 54.517-.001 30.06-24.457 54.517-54.518 54.517zm305.279-54.518c0 30.061-24.455 54.517-54.517 54.517s-54.518-24.457-54.518-54.517c0-30.061 24.457-54.517 54.518-54.517s54.517 24.457 54.517 54.517zm-71.315-70.134c-28.914 6.926-51.102 31.299-54.776 61.328H187.056c-3.705-30.278-26.234-54.807-55.499-61.496l16.655-22.622c27.506 16.063 59.475 25.282 93.56 25.282 32.891 0 63.809-8.587 90.65-23.621l17.025 21.129z"/></svg>