<svg xmlns="http://www.w3.org/2000/svg" viewBox="0 0 468.74 468.74"><path d="M461.24 59.245h-21.87v-22.5a7.5 7.5 0 0 0-7.5-7.5H263.104a41.877 41.877 0 0 0-28.733 11.373 41.883 41.883 0 0 0-28.732-11.373H36.87a7.5 7.5 0 0 0-7.5 7.5v22.5H7.5a7.5 7.5 0 0 0-7.5 7.5v263.346c0 20.678 16.822 37.5 37.5 37.5h144.37v56.904h-32.5c-4.143 0-7.5 3.358-7.5 7.5s3.357 7.5 7.5 7.5h170c4.143 0 7.5-3.358 7.5-7.5s-3.357-7.5-7.5-7.5h-32.5v-34.404c0-4.142-3.357-7.5-7.5-7.5s-7.5 3.358-7.5 7.5v34.404h-75v-56.904h234.37c20.678 0 37.5-16.822 37.5-37.5V66.745a7.5 7.5 0 0 0-7.5-7.5zm-7.5 15v213.14h-14.37V74.245h14.37zm-409.37-30h161.268c9.056 0 17.461 4.514 22.486 12.075a7.498 7.498 0 0 0 12.493 0c5.023-7.561 13.43-12.074 22.486-12.074H424.37v243.14h-380V44.245zm-15 30v213.14H15V74.245h14.37zm401.87 278.346H37.5c-12.406 0-22.5-10.093-22.5-22.5v-27.707h438.74v27.707c0 12.407-10.094 22.5-22.5 22.5z"/><path d="M234.37 272.385a7.5 7.5 0 0 0 7.5-7.5V82.168c0-4.142-3.357-7.5-7.5-7.5s-7.5 3.358-7.5 7.5v182.716a7.5 7.5 0 0 0 7.5 7.501zM77.5 84.245h114.965c4.143 0 7.5-3.358 7.5-7.5s-3.357-7.5-7.5-7.5H77.5c-4.143 0-7.5 3.358-7.5 7.5s3.357 7.5 7.5 7.5zm0 35.628h114.965c4.143 0 7.5-3.358 7.5-7.5s-3.357-7.5-7.5-7.5H77.5c-4.143 0-7.5 3.358-7.5 7.5s3.357 7.5 7.5 7.5zm0 35.628h57.482c4.143 0 7.5-3.358 7.5-7.5s-3.357-7.5-7.5-7.5H77.5c-4.143 0-7.5 3.358-7.5 7.5s3.357 7.5 7.5 7.5zm0 35.628h114.965c4.143 0 7.5-3.358 7.5-7.5s-3.357-7.5-7.5-7.5H77.5c-4.143 0-7.5 3.358-7.5 7.5s3.357 7.5 7.5 7.5zm0 35.628h114.965c4.143 0 7.5-3.358 7.5-7.5s-3.357-7.5-7.5-7.5H77.5c-4.143 0-7.5 3.358-7.5 7.5s3.357 7.5 7.5 7.5zm0 35.628h57.482c4.143 0 7.5-3.358 7.5-7.5s-3.357-7.5-7.5-7.5H77.5c-4.143 0-7.5 3.358-7.5 7.5s3.357 7.5 7.5 7.5zm198.775-178.14h114.964c4.143 0 7.5-3.358 7.5-7.5s-3.357-7.5-7.5-7.5H276.275a7.5 7.5 0 0 0 0 15zm0 35.628h114.964c4.143 0 7.5-3.358 7.5-7.5s-3.357-7.5-7.5-7.5H276.275a7.5 7.5 0 0 0 0 15zm0 35.628h57.481c4.143 0 7.5-3.358 7.5-7.5s-3.357-7.5-7.5-7.5h-57.481a7.5 7.5 0 0 0 0 15zm0 35.628h114.964c4.143 0 7.5-3.358 7.5-7.5s-3.357-7.5-7.5-7.5H276.275a7.5 7.5 0 0 0 0 15zm0 35.628h114.964c4.143 0 7.5-3.358 7.5-7.5s-3.357-7.5-7.5-7.5H276.275a7.5 7.5 0 0 0 0 15zm0 35.628h57.481c4.143 0 7.5-3.358 7.5-7.5s-3.357-7.5-7.5-7.5h-57.481a7.5 7.5 0 0 0 0 15z"/></svg>