<svg xmlns="http://www.w3.org/2000/svg" viewBox="0 0 512 512"><path d="M319.135 173.608c-29.962 0-54.798 22.307-58.808 51.183-33.112 2.859-46.04 23.403-51.02 37.391-4.049-4.405-7.901-11.166-11.152-19.745-4.078-10.762-14.569-17.993-26.106-17.993-8.504 0-16.441 3.799-21.777 10.425-5.324 6.61-7.341 15.154-5.535 23.438 4.152 19.035 13.094 36.94 25.861 51.779a8.528 8.528 0 0 0 6.487 2.974 8.553 8.553 0 0 0 6.479-14.13c-10.921-12.693-18.568-28-22.116-44.269a10.738 10.738 0 0 1 2.144-9.063 10.807 10.807 0 0 1 8.455-4.048c4.473 0 8.536 2.793 10.112 6.949 5.2 13.721 14.669 31.022 30.254 35.524 2.473.714 5.141.249 7.256-1.221s3.457-3.842 3.65-6.41c.007-.09.749-9.149 6.675-17.844 6.502-9.539 16.736-15.085 30.459-16.574a59.348 59.348 0 0 0 25.47 40.264 8.553 8.553 0 1 0 9.575-14.174c-11.677-7.889-18.649-20.998-18.649-35.067 0-23.315 18.968-42.284 42.284-42.284s42.284 18.968 42.284 42.284c0 55.773-45.374 101.147-101.147 101.147-20.231 0-39.754-5.951-56.457-17.21a8.554 8.554 0 0 0-11.872 2.311 8.554 8.554 0 0 0 2.311 11.872c19.538 13.169 42.367 20.13 66.017 20.13 65.204 0 118.251-53.047 118.251-118.251.003-32.747-26.639-59.388-59.385-59.388z"/><path d="M467.595 328.743l-84.596-153.879a8.553 8.553 0 0 0-14.989 8.241l80.431 146.302c-55.735 29.057-118.14 44.381-181.037 44.381s-125.302-15.324-181.037-44.381l103.527-188.313c24.071 11.742 50.691 17.914 77.51 17.914 26.819 0 53.44-6.174 77.51-17.914l10.926 19.876a8.554 8.554 0 0 0 14.989-8.241l-14.946-27.186c-2.275-4.138-7.475-5.648-11.615-3.374-48.13 26.461-105.6 26.46-153.73 0a8.555 8.555 0 0 0-11.615 3.374l-111.711 203.2a8.553 8.553 0 0 0 3.374 11.615c60.135 33.06 128.194 50.534 196.818 50.534 68.623 0 136.681-17.474 196.817-50.534a8.552 8.552 0 0 0 3.374-11.615z"/><path d="M503.448 52.454H66.712a8.552 8.552 0 0 0 0 17.104h428.184V442.44H17.105V69.559h21.099a8.552 8.552 0 0 0 0-17.104H8.552A8.552 8.552 0 0 0 0 61.007v389.987a8.552 8.552 0 0 0 8.552 8.552h494.895a8.552 8.552 0 0 0 8.552-8.552V61.007a8.552 8.552 0 0 0-8.551-8.553z"/><path d="M471.522 86.9H461.26a8.552 8.552 0 0 0 0 17.104h10.263a8.552 8.552 0 1 0-.001-17.104zm-38.77 0h-28.508a8.552 8.552 0 0 0 0 17.104h28.508a8.552 8.552 0 0 0 0-17.104zm38.77 29.648h-67.278a8.552 8.552 0 0 0 0 17.104h67.278a8.552 8.552 0 0 0 8.552-8.552 8.55 8.55 0 0 0-8.552-8.552zm0 29.648h-31.929a8.552 8.552 0 0 0 0 17.104h31.929a8.552 8.552 0 0 0 8.552-8.552 8.55 8.55 0 0 0-8.552-8.552zm-60.436 0h-6.842a8.552 8.552 0 0 0 0 17.104h6.842a8.552 8.552 0 0 0 0-17.104zM61.01 231.263a8.552 8.552 0 0 0 0-17.104H46.756v-52.226H61.01v-.001a8.552 8.552 0 0 0 0-17.104H46.756V108.9a8.552 8.552 0 0 0-17.104 0v294.2a8.552 8.552 0 0 0 17.104 0v-33.175H61.01a8.552 8.552 0 0 0 0-17.104H46.756v-52.226H61.01a8.552 8.552 0 0 0 0-17.104H46.756v-52.226H61.01zm347.795 59.753H390.56a8.552 8.552 0 0 0 0 17.104h18.245a8.552 8.552 0 0 0 0-17.104zM210.391 166.722h-18.245a8.552 8.552 0 0 0 0 17.104h18.245a8.552 8.552 0 0 0 0-17.104zM390.56 317.243h-18.245a8.552 8.552 0 0 0 0 17.104h18.245a8.552 8.552 0 0 0 0-17.104z"/><circle cx="302.377" cy="233.696" r="8.552"/></svg>