<svg viewBox="0 0 791 586" xmlns="http://www.w3.org/2000/svg"><style>.st0{fill:#43ccff}</style><path class="st0" d="M603.77 42.182c-12.728-20.827-37.026-33.555-64.795-33.555H90.035c-45.125 0-82.151 37.026-82.151 82.151v413.07c0 45.125 37.026 82.151 82.151 82.151h448.94c28.926 0 53.225-12.728 64.795-33.555l179.34-255.71z" fill="#43ccff" stroke-width="11.571"/><path d="M344.188 139.52c-79.37 0-143.942 64.573-143.942 143.942 0 26.817 7.428 52.987 21.486 75.692l114.259 184.134a11.995 11.995 0 0 0 10.191 5.67h.096a11.993 11.993 0 0 0 10.196-5.83L467.82 357.21c13.283-22.225 20.303-47.726 20.303-73.747 0-79.37-64.572-143.942-143.942-143.942zm103.055 205.374L346.01 513.922 242.133 346.517c-11.702-18.898-18.046-40.7-18.046-63.051 0-66.142 53.97-120.112 120.111-120.112s120.032 53.97 120.032 120.112c0 21.688-5.926 42.933-16.98 61.43z" fill-opacity="0"/><path d="M344.188 211.491c-39.685 0-71.971 32.286-71.971 71.971 0 39.432 31.76 71.972 71.971 71.972 40.706 0 71.971-32.974 71.971-71.972 0-39.685-32.286-71.97-71.97-71.97zm0 120.112c-26.595 0-48.14-21.618-48.14-48.14 0-26.457 21.683-48.141 48.14-48.141s48.06 21.684 48.06 48.14c0 26.136-21.044 48.141-48.06 48.141z" fill-opacity="0"/><path d="M448.36 164.302H174.605c-6.995 0-13.036 5.723-13.036 13.036V391c0 6.995 5.723 13.036 13.036 13.036H448.36c6.995 0 13.036-5.723 13.036-13.036v-61.682l47.374 47.374c2.544 2.544 5.723 3.816 9.22 3.816 1.59 0 3.498-.318 5.088-.954 4.77-1.908 7.949-6.677 7.949-12.082V200.548c0-5.087-3.18-9.857-7.95-12.082-4.768-1.908-10.491-.954-13.989 2.861l-47.374 47.375v-61.364c-.318-7.313-6.041-13.036-13.354-13.036zm-13.036 105.877v108.103H187.323V190.056h248zm69.63-38.154V336.63l-43.558-43.559v-17.169z" fill="#fff"/></svg>