<svg xmlns="http://www.w3.org/2000/svg" viewBox="0 0 512 512"><path d="M255 0C114.061 0 0 114.049 0 255c0 139.895 113.025 257 255 257 140.448 0 257-115.709 257-257C512 112.87 394.743 0 255 0zm0 482.2C130.935 482.2 29.8 380.168 29.8 255 29.8 130.935 130.935 29.8 255 29.8c125.168 0 227.2 101.135 227.2 225.2 0 125.168-102.032 227.2-227.2 227.2z"/><path d="M278.213 255l49.393-49.393c5.858-5.858 5.858-15.356 0-21.214-5.857-5.858-15.355-5.858-21.213 0l-60 60c-5.858 5.858-5.858 15.355 0 21.213l60 60c5.857 5.857 15.355 5.858 21.213 0 5.858-5.858 5.858-15.355 0-21.213L278.213 255z"/><path d="M255 60C147.592 60 60 147.397 60 255c0 107.953 87.863 197 195 197 107.494 0 197-89.147 197-197 0-107.075-88.982-195-197-195zm127.587 301.374l-8.915-8.915c-5.857-5.858-15.355-5.858-21.213 0-5.858 5.858-5.858 15.355 0 21.213l8.914 8.914c-25.451 21.386-57.105 35.479-91.374 38.697V407c0-8.284-6.716-15-15-15s-15 6.716-15 15v14.303c-34.136-3.129-65.304-16.816-90.277-37.812l9.818-9.818c5.858-5.858 5.858-15.355 0-21.213-5.857-5.858-15.355-5.858-21.213 0l-9.74 9.74c-21.083-25.429-34.828-57.283-37.914-92.2H105c8.284 0 15-6.716 15-15s-6.716-15-15-15H90.689c3.102-34.25 16.707-65.512 37.571-90.527l10.068 10.068c5.857 5.857 15.355 5.858 21.213 0 5.858-5.858 5.858-15.355 0-21.213l-10.068-10.068C174.488 107.396 205.75 93.791 240 90.689V105c0 8.284 6.716 15 15 15s15-6.716 15-15V90.673c34.917 3.086 66.771 16.831 92.199 37.915l-9.739 9.739c-9.479 9.479-2.637 25.607 10.606 25.607a14.95 14.95 0 0 0 10.606-4.393l9.818-9.818c20.997 24.973 34.684 56.142 37.812 90.277H407c-8.284 0-15 6.716-15 15s6.716 15 15 15h14.284c-3.218 34.269-17.311 65.923-38.697 91.374z"/></svg>